<svg id="Layer_1" xmlns="http://www.w3.org/2000/svg" viewBox="0 0 1091 655">
  <style>
    .st0{opacity:0.25;} .st1{fill:none;stroke:#FF7BAC;stroke-width:2;stroke-miterlimit:10;} .st2{fill:#0071BC;} .st3{fill:#808080;} .st4{fill:#C1272D;} .st5{opacity:0.75;} .st6{fill:#FFFFFF;} .st7{fill:none;stroke:#C1272D;stroke-width:4;stroke-miterlimit:10;} .st8{fill:none;stroke:#0071BC;stroke-width:4;stroke-miterlimit:10;}
  </style>
  <path class="st0 st1" d="M1064.6 93.5H26M1065 160H26.4M1065 226.5H26.4M1065 293H26.4M1065 359.5H26.4M1065 426H26.4M1065 559H26.4M1065 625.5H26.4"/>
  <path d="M55 132.9c.9.5 2.2 1 3.6 1 2 0 3.2-1.1 3.2-2.6 0-1.4-.8-2.3-2.9-3.1-2.5-.9-4.1-2.2-4.1-4.4 0-2.4 2-4.2 5-4.2 1.6 0 2.7.4 3.4.8l-.5 1.6c-.5-.3-1.5-.7-2.9-.7-2.1 0-2.9 1.3-2.9 2.3 0 1.4.9 2.1 3.1 3 2.6 1 3.9 2.3 3.9 4.5 0 2.4-1.8 4.4-5.4 4.4-1.5 0-3.1-.4-3.9-1l.4-1.6zm19.5-4.8h-6v5.5h6.7v1.7h-8.6v-15.4h8.3v1.7h-6.3v4.9h6v1.6zm6.5-6.5h-4.7v-1.7h11.4v1.7H83v13.7h-2v-13.7zm12.2 0h-4.7v-1.7h11.4v1.7h-4.7v13.7h-2v-13.7zm10.4-1.7v15.4h-2v-15.4h2zm3.5 15.4v-15.4h2.2l4.9 7.8c1.1 1.8 2 3.4 2.8 5-.2-2.1-.2-3.9-.2-6.3V120h1.9v15.4h-2l-4.9-7.8c-1.1-1.7-2.1-3.5-2.9-5.1h-.1c.1 1.9.2 3.8.2 6.3v6.6h-1.9zm26.7-.7c-.9.3-2.6.8-4.7.8-2.3 0-4.2-.6-5.7-2-1.3-1.3-2.1-3.3-2.1-5.7 0-4.6 3.2-7.9 8.3-7.9 1.8 0 3.2.4 3.8.7l-.5 1.6c-.8-.4-1.8-.7-3.4-.7-3.7 0-6.2 2.3-6.2 6.2 0 3.9 2.3 6.2 5.9 6.2 1.3 0 2.2-.2 2.6-.4v-4.6h-3.1v-1.6h5.1v7.4zm2.7-1.7c.9.5 2.2 1 3.6 1 2 0 3.2-1.1 3.2-2.6 0-1.4-.8-2.3-2.9-3.1-2.5-.9-4.1-2.2-4.1-4.4 0-2.4 2-4.2 5-4.2 1.6 0 2.7.4 3.4.8l-.5 1.6c-.5-.3-1.5-.7-2.9-.7-2.1 0-2.9 1.3-2.9 2.3 0 1.4.9 2.1 3.1 3 2.6 1 3.9 2.3 3.9 4.5 0 2.4-1.8 4.4-5.4 4.4-1.5 0-3.1-.4-3.9-1l.4-1.6zM603.1 32.5c-.1-2.1-.3-4.7-.2-6.6h-.1c-.5 1.8-1.2 3.7-1.9 5.8l-2.7 7.5h-1.5l-2.5-7.3c-.7-2.2-1.3-4.2-1.8-6 0 1.9-.2 4.5-.3 6.8l-.4 6.6h-1.9l1.1-15.4h2.5l2.6 7.4c.6 1.9 1.2 3.6 1.6 5.2h.1c.4-1.6.9-3.2 1.6-5.2l2.7-7.4h2.5l1 15.4h-1.9l-.5-6.8zm7.7 2l-1.6 4.8h-2.1l5.2-15.4h2.4l5.2 15.4h-2.1l-1.6-4.8h-5.4zm5-1.6l-1.5-4.4c-.3-1-.6-1.9-.8-2.8-.2.9-.5 1.8-.8 2.8l-1.5 4.4h4.6zm17.8 5.7c-.9.3-2.6.8-4.7.8-2.3 0-4.2-.6-5.7-2-1.3-1.3-2.1-3.3-2.1-5.7 0-4.6 3.2-7.9 8.3-7.9 1.8 0 3.2.4 3.8.7l-.5 1.6c-.8-.4-1.8-.7-3.4-.7-3.7 0-6.2 2.3-6.2 6.2 0 3.9 2.3 6.2 5.9 6.2 1.3 0 2.2-.2 2.6-.4v-4.6h-3.1v-1.6h5.1v7.4zm3 .7V23.9h2.2l4.9 7.8c1.1 1.8 2 3.4 2.8 5-.2-2.1-.2-3.9-.2-6.3V24h1.9v15.4h-2l-4.9-7.8c-1.1-1.7-2.1-3.5-2.9-5.1h-.1c.1 1.9.2 3.8.2 6.3v6.6h-1.9zm17-15.4v15.4h-2V23.9h2zm6.4 1.7h-4.7v-1.7h11.4v1.7H662v13.7h-2V25.6zm10.4-1.7V33c0 3.4 1.5 4.9 3.6 4.9 2.3 0 3.7-1.5 3.7-4.9v-9.1h2v9c0 4.7-2.5 6.7-5.8 6.7-3.1 0-5.5-1.8-5.5-6.6v-9.1h2zm12.8.2c1.2-.2 2.6-.3 4.2-.3 2.9 0 4.9.7 6.2 1.9 1.4 1.3 2.2 3 2.2 5.5s-.8 4.6-2.2 6c-1.4 1.4-3.8 2.2-6.8 2.2-1.4 0-2.6-.1-3.6-.2V24.1zm2 13.6c.5.1 1.2.1 2 .1 4.2 0 6.5-2.4 6.5-6.5 0-3.6-2-5.9-6.2-5.9-1 0-1.8.1-2.3.2v12.1z"/>
  <path class="st2" d="M916.4 591.8c-.7.4-2.2.7-4.1.7-4.3 0-7.6-2.7-7.6-7.8 0-4.8 3.3-8.1 8-8.1 1.9 0 3.1.4 3.6.7l-.3 1.7c-.8-.4-1.8-.6-3.1-.6-3.6 0-6 2.3-6 6.3 0 3.8 2.2 6.2 5.9 6.2 1.2 0 2.4-.3 3.2-.6l.4 1.5zm2.2-1.9c.9.5 2.2 1 3.6 1 2 0 3.2-1.1 3.2-2.6 0-1.4-.8-2.3-2.9-3.1-2.5-.9-4.1-2.2-4.1-4.4 0-2.4 2-4.2 5-4.2 1.6 0 2.7.4 3.4.8l-.5 1.6c-.5-.3-1.5-.7-2.9-.7-2.1 0-2.9 1.3-2.9 2.3 0 1.4.9 2.1 3.1 3 2.6 1 3.9 2.3 3.9 4.5 0 2.4-1.8 4.4-5.4 4.4-1.5 0-3.1-.4-3.9-1l.4-1.6zm11.3 0c.9.5 2.2 1 3.6 1 2 0 3.2-1.1 3.2-2.6 0-1.4-.8-2.3-2.9-3.1-2.5-.9-4.1-2.2-4.1-4.4 0-2.4 2-4.2 5-4.2 1.6 0 2.7.4 3.4.8l-.5 1.6c-.5-.3-1.5-.7-2.9-.7-2.1 0-2.9 1.3-2.9 2.3 0 1.4.9 2.1 3.1 3 2.6 1 3.9 2.3 3.9 4.5 0 2.4-1.8 4.4-5.4 4.4-1.5 0-3.1-.4-3.9-1l.4-1.6zm29.5-5.5c0 5.3-3.2 8.1-7.1 8.1-4.1 0-6.9-3.1-6.9-7.8 0-4.9 3-8.1 7.1-8.1 4.2.1 6.9 3.3 6.9 7.8zm-12 .3c0 3.3 1.8 6.2 4.9 6.2 3.1 0 4.9-2.9 4.9-6.4 0-3.1-1.6-6.2-4.9-6.2-3.2 0-4.9 3-4.9 6.4zm16.5-7.8v9.1c0 3.4 1.5 4.9 3.6 4.9 2.3 0 3.7-1.5 3.7-4.9v-9.1h2v9c0 4.7-2.5 6.7-5.8 6.7-3.1 0-5.5-1.8-5.5-6.6v-9.1h2zm15.7 1.7h-4.7v-1.7h11.4v1.7h-4.7v13.7h-2v-13.7zm8.4-1.5c1-.2 2.2-.3 3.8-.3 2 0 3.4.5 4.3 1.3.8.7 1.3 1.8 1.3 3.2 0 1.4-.4 2.5-1.2 3.3-1 1.1-2.8 1.7-4.7 1.7-.6 0-1.1 0-1.6-.1v6.2h-2v-15.3zm2 7.4c.4.1 1 .2 1.6.2 2.4 0 3.9-1.2 3.9-3.3 0-2-1.4-3-3.6-3-.9 0-1.5.1-1.9.2v5.9zm12.1-7.6v9.1c0 3.4 1.5 4.9 3.6 4.9 2.3 0 3.7-1.5 3.7-4.9v-9.1h2v9c0 4.7-2.5 6.7-5.8 6.7-3.1 0-5.5-1.8-5.5-6.6v-9.1h2zm15.7 1.7h-4.7v-1.7h11.4v1.7h-4.7v13.7h-2v-13.7z"/>
  <path class="st3" d="M477.8 62.5l-1.3 3.8h-1.6l4.1-12.1h1.9l4.1 12.1h-1.7l-1.3-3.8h-4.2zm4-1.2l-1.2-3.5c-.3-.8-.5-1.5-.6-2.2l-.6 2.2-1.2 3.5h3.6zm5-7.8h1.6v12.8h-1.6V53.5zM497.2 66c-.4.2-1.3.5-2.5.5-2.6 0-4.3-1.8-4.3-4.4 0-2.7 1.8-4.6 4.7-4.6.9 0 1.8.2 2.2.5l-.4 1.2c-.4-.2-1-.4-1.8-.4-2 0-3.1 1.5-3.1 3.3 0 2 1.3 3.3 3 3.3.9 0 1.5-.2 1.9-.4l.3 1zm6.7.3l-.1-1.1h-.1c-.5.7-1.4 1.3-2.7 1.3-1.8 0-2.7-1.2-2.7-2.5 0-2.1 1.9-3.3 5.2-3.2v-.2c0-.7-.2-2-2-2-.8 0-1.7.3-2.3.6l-.4-1c.7-.5 1.8-.8 2.9-.8 2.7 0 3.3 1.8 3.3 3.6v3.3c0 .8 0 1.5.1 2.1h-1.2zm-.2-4.4c-1.7 0-3.7.3-3.7 2 0 1 .7 1.5 1.5 1.5 1.1 0 1.9-.7 2.1-1.5.1-.2.1-.3.1-.5v-1.5zm4.1-2c0-.9 0-1.6-.1-2.4h1.4l.1 1.4c.4-.8 1.4-1.6 2.9-1.6 1.2 0 3.1.7 3.1 3.7v5.2h-1.6v-5c0-1.4-.5-2.6-2-2.6-1 0-1.9.7-2.1 1.6-.1.2-.1.5-.1.7v5.2h-1.6v-6.2zM524 66c-.4.2-1.3.5-2.5.5-2.6 0-4.3-1.8-4.3-4.4 0-2.7 1.8-4.6 4.7-4.6.9 0 1.8.2 2.2.5l-.4 1.2c-.4-.2-1-.4-1.8-.4-2 0-3.1 1.5-3.1 3.3 0 2 1.3 3.3 3 3.3.9 0 1.5-.2 1.9-.4l.3 1zm2.6-3.8c0 2.1 1.4 3 3 3 1.1 0 1.8-.2 2.4-.5l.3 1.1c-.6.3-1.5.5-2.9.5-2.7 0-4.3-1.8-4.3-4.4 0-2.6 1.5-4.7 4.1-4.7 2.8 0 3.6 2.5 3.6 4.1 0 .3 0 .6-.1.7h-6.1zm4.6-1.1c0-1-.4-2.6-2.2-2.6-1.6 0-2.3 1.5-2.4 2.6h4.6zm8.2 1.1c0 2.1 1.4 3 3 3 1.1 0 1.8-.2 2.4-.5l.3 1.1c-.6.3-1.5.5-2.9.5-2.7 0-4.3-1.8-4.3-4.4 0-2.6 1.5-4.7 4.1-4.7 2.8 0 3.6 2.5 3.6 4.1 0 .3 0 .6-.1.7h-6.1zm4.7-1.1c0-1-.4-2.6-2.2-2.6-1.6 0-2.3 1.5-2.4 2.6h4.6zm9-6c0 .5-.4 1-1 1s-1-.4-1-1 .4-1 1-1c.7 0 1 .5 1 1zm-1.7 11.2v-8.7h1.6v8.7h-1.6zm4.2-6.4c0-.9 0-1.6-.1-2.4h1.4l.1 1.5h.1c.5-.8 1.3-1.6 2.7-1.6 1.2 0 2.1.7 2.5 1.7.3-.5.6-.9 1-1.1.5-.4 1.1-.6 1.9-.6 1.2 0 2.9.8 2.9 3.8v5.1h-1.5v-4.9c0-1.7-.6-2.7-1.9-2.7-.9 0-1.6.7-1.9 1.4-.1.2-.1.5-.1.8v5.4H561v-5.2c0-1.4-.6-2.4-1.8-2.4-1 0-1.7.8-2 1.6-.1.2-.1.5-.1.8v5.3h-1.5v-6.5zm15 .5c0-1.1 0-2-.1-2.8h1.4l.1 1.5c.6-1.1 1.7-1.7 3.1-1.7 2.1 0 3.7 1.8 3.7 4.4 0 3.1-1.9 4.7-4 4.7-1.2 0-2.2-.5-2.7-1.4v4.7h-1.6v-9.4zm1.6 2.4c0 .2 0 .5.1.6.3 1.1 1.2 1.9 2.4 1.9 1.7 0 2.6-1.4 2.6-3.4 0-1.7-.9-3.2-2.6-3.2-1.1 0-2.1.8-2.4 2-.1.2-.1.4-.1.6v1.5zm13.5 3.5l-.1-1.1h-.1c-.5.7-1.4 1.3-2.7 1.3-1.8 0-2.7-1.2-2.7-2.5 0-2.1 1.9-3.3 5.2-3.2v-.2c0-.7-.2-2-2-2-.8 0-1.7.3-2.3.6l-.4-1c.7-.5 1.8-.8 2.9-.8 2.7 0 3.3 1.8 3.3 3.6v3.3c0 .8 0 1.5.1 2.1h-1.2zm-.3-4.4c-1.7 0-3.7.3-3.7 2 0 1 .7 1.5 1.5 1.5 1.1 0 1.9-.7 2.1-1.5.1-.2.1-.3.1-.5v-1.5zm10.3 4.1c-.4.2-1.3.5-2.5.5-2.6 0-4.3-1.8-4.3-4.4 0-2.7 1.8-4.6 4.7-4.6.9 0 1.8.2 2.2.5l-.4 1.2c-.4-.2-1-.4-1.8-.4-2 0-3.1 1.5-3.1 3.3 0 2 1.3 3.3 3 3.3.9 0 1.5-.2 1.9-.4l.3 1zm4-10.9v2.5h2.3v1.2h-2.3v4.7c0 1.1.3 1.7 1.2 1.7.4 0 .7-.1.9-.1l.1 1.2c-.3.1-.8.2-1.4.2-.7 0-1.3-.2-1.7-.7-.4-.5-.6-1.2-.6-2.3v-4.8h-1.4v-1.2h1.4v-2.1l1.5-.3zm11.8 6.8c0 3.2-2.2 4.6-4.3 4.6-2.4 0-4.2-1.7-4.2-4.5 0-2.9 1.9-4.6 4.3-4.6 2.6 0 4.2 1.8 4.2 4.5zm-6.9.1c0 1.9 1.1 3.3 2.6 3.3s2.6-1.4 2.6-3.4c0-1.5-.7-3.3-2.6-3.3-1.8 0-2.6 1.7-2.6 3.4zm13.6.2c0 2.1 1.4 3 3 3 1.1 0 1.8-.2 2.4-.5l.3 1.1c-.6.3-1.5.5-2.9.5-2.7 0-4.3-1.8-4.3-4.4 0-2.6 1.5-4.7 4.1-4.7 2.8 0 3.6 2.5 3.6 4.1 0 .3 0 .6-.1.7h-6.1zm4.7-1.1c0-1-.4-2.6-2.2-2.6-1.6 0-2.3 1.5-2.4 2.6h4.6zm3.5-1.2c0-.9 0-1.6-.1-2.4h1.4l.1 1.4c.4-.8 1.4-1.6 2.9-1.6 1.2 0 3.1.7 3.1 3.7v5.2h-1.6v-5c0-1.4-.5-2.6-2-2.6-1 0-1.9.7-2.1 1.6-.1.2-.1.5-.1.7v5.2h-1.6v-6.2zm20 6.1c-.4.2-1.3.5-2.5.5-2.6 0-4.3-1.8-4.3-4.4 0-2.7 1.8-4.6 4.7-4.6.9 0 1.8.2 2.2.5l-.4 1.2c-.4-.2-1-.4-1.8-.4-2 0-3.1 1.5-3.1 3.3 0 2 1.3 3.3 3 3.3.9 0 1.5-.2 1.9-.4l.3 1zm6.7.3l-.1-1.1h-.1c-.5.7-1.4 1.3-2.7 1.3-1.8 0-2.7-1.2-2.7-2.5 0-2.1 1.9-3.3 5.2-3.2v-.2c0-.7-.2-2-2-2-.8 0-1.7.3-2.3.6l-.4-1c.7-.5 1.8-.8 2.9-.8 2.7 0 3.3 1.8 3.3 3.6v3.3c0 .8 0 1.5.1 2.1h-1.2zm-.3-4.4c-1.7 0-3.7.3-3.7 2 0 1 .7 1.5 1.5 1.5 1.1 0 1.9-.7 2.1-1.5.1-.2.1-.3.1-.5v-1.5zm4.1-2c0-.9 0-1.6-.1-2.4h1.4l.1 1.4c.4-.8 1.4-1.6 2.9-1.6 1.2 0 3.1.7 3.1 3.7v5.2h-1.6v-5c0-1.4-.5-2.6-2-2.6-1 0-1.9.7-2.1 1.6-.1.2-.1.5-.1.7v5.2h-1.6v-6.2zm11.8-4.8v2.5h2.3v1.2h-2.3v4.7c0 1.1.3 1.7 1.2 1.7.4 0 .7-.1.9-.1l.1 1.2c-.3.1-.8.2-1.4.2-.7 0-1.3-.2-1.7-.7-.5-.5-.6-1.2-.6-2.3v-4.8h-1.4v-1.2h1.4v-2.1l1.5-.3zm5.9 0c0 .5-.4 1-1 1s-1-.4-1-1 .4-1 1-1 1 .5 1 1zm-1.8 11.2v-8.7h1.6v8.7h-1.6zm11.7-12.8V64c0 .8 0 1.7.1 2.3h-1.4l-.1-1.5c-.5 1-1.5 1.7-3 1.7-2.1 0-3.7-1.8-3.7-4.4 0-2.9 1.8-4.7 3.9-4.7 1.3 0 2.2.6 2.6 1.3v-5.2h1.6zm-1.5 7.6c0-.2 0-.5-.1-.7-.2-1-1.1-1.8-2.3-1.8-1.6 0-2.6 1.4-2.6 3.4 0 1.8.9 3.2 2.6 3.2 1.1 0 2-.7 2.3-1.9.1-.2.1-.4.1-.7v-1.5zm9 5.2l-.1-1.1h-.1c-.5.7-1.4 1.3-2.7 1.3-1.8 0-2.7-1.2-2.7-2.5 0-2.1 1.9-3.3 5.2-3.2v-.2c0-.7-.2-2-2-2-.8 0-1.7.3-2.3.6l-.4-1c.7-.5 1.8-.8 2.9-.8 2.7 0 3.3 1.8 3.3 3.6v3.3c0 .8 0 1.5.1 2.1H692zm-.2-4.4c-1.7 0-3.7.3-3.7 2 0 1 .7 1.5 1.5 1.5 1.1 0 1.9-.7 2.1-1.5.1-.2.1-.3.1-.5v-1.5zm11.6-8.4V64c0 .8 0 1.7.1 2.3H702l-.1-1.5c-.5 1-1.5 1.7-3 1.7-2.1 0-3.7-1.8-3.7-4.4 0-2.9 1.8-4.7 3.9-4.7 1.3 0 2.2.6 2.6 1.3v-5.2h1.7zm-1.6 7.6c0-.2 0-.5-.1-.7-.2-1-1.1-1.8-2.3-1.8-1.6 0-2.6 1.4-2.6 3.4 0 1.8.9 3.2 2.6 3.2 1.1 0 2-.7 2.3-1.9.1-.2.1-.4.1-.7v-1.5zm15.5-7.6V64c0 .8 0 1.7.1 2.3H716l-.1-1.5c-.5 1-1.5 1.7-3 1.7-2.1 0-3.7-1.8-3.7-4.4 0-2.9 1.8-4.7 3.9-4.7 1.3 0 2.2.6 2.6 1.3v-5.2h1.6zm-1.6 7.6c0-.2 0-.5-.1-.7-.2-1-1.1-1.8-2.3-1.8-1.6 0-2.6 1.4-2.6 3.4 0 1.8.9 3.2 2.6 3.2 1.1 0 2-.7 2.3-1.9.1-.2.1-.4.1-.7v-1.5zm5.1 1.1c0 2.1 1.4 3 3 3 1.1 0 1.8-.2 2.4-.5l.3 1.1c-.6.3-1.5.5-2.9.5-2.7 0-4.3-1.8-4.3-4.4 0-2.6 1.5-4.7 4.1-4.7 2.8 0 3.6 2.5 3.6 4.1 0 .3 0 .6-.1.7h-6.1zm4.7-1.1c0-1-.4-2.6-2.2-2.6-1.6 0-2.3 1.5-2.4 2.6h4.6zm8.2 1.1c0 2.1 1.4 3 3 3 1.1 0 1.8-.2 2.4-.5l.3 1.1c-.6.3-1.5.5-2.9.5-2.7 0-4.3-1.8-4.3-4.4 0-2.6 1.5-4.7 4.1-4.7 2.8 0 3.6 2.5 3.6 4.1 0 .3 0 .6-.1.7h-6.1zm4.6-1.1c0-1-.4-2.6-2.2-2.6-1.6 0-2.3 1.5-2.4 2.6h4.6zm3.5-7.6h1.6v12.8h-1.6V53.5zm5.1 8.7c0 2.1 1.4 3 3 3 1.1 0 1.8-.2 2.4-.5l.3 1.1c-.6.3-1.5.5-2.9.5-2.7 0-4.3-1.8-4.3-4.4 0-2.6 1.5-4.7 4.1-4.7 2.8 0 3.6 2.5 3.6 4.1 0 .3 0 .6-.1.7h-6.1zm4.7-1.1c0-1-.4-2.6-2.2-2.6-1.6 0-2.3 1.5-2.4 2.6h4.6zm3.5-1.2c0-.9 0-1.6-.1-2.4h1.4l.1 1.4h.1c.5-.8 1.3-1.6 2.7-1.6 1.2 0 2.1.7 2.5 1.7.3-.5.6-.9 1-1.1.5-.4 1.1-.6 1.9-.6 1.2 0 2.9.8 2.9 3.8v5.1H766v-4.9c0-1.7-.6-2.7-1.9-2.7-.9 0-1.6.7-1.9 1.4-.1.2-.1.5-.1.8v5.4h-1.5V61c0-1.4-.6-2.4-1.8-2.4-1 0-1.7.8-2 1.6-.1.2-.1.5-.1.8v5.3h-1.5v-6.4zm15.9 2.3c0 2.1 1.4 3 3 3 1.1 0 1.8-.2 2.4-.5l.3 1.1c-.6.3-1.5.5-2.9.5-2.7 0-4.3-1.8-4.3-4.4 0-2.6 1.5-4.7 4.1-4.7 2.8 0 3.6 2.5 3.6 4.1 0 .3 0 .6-.1.7H771zm4.6-1.1c0-1-.4-2.6-2.2-2.6-1.6 0-2.3 1.5-2.4 2.6h4.6zm3.5-1.2c0-.9 0-1.6-.1-2.4h1.4l.1 1.4c.4-.8 1.4-1.6 2.9-1.6 1.2 0 3.1.7 3.1 3.7v5.2h-1.6v-5c0-1.4-.5-2.6-2-2.6-1 0-1.9.7-2.1 1.6-.1.2-.1.5-.1.7v5.2h-1.6v-6.2zm11.8-4.8v2.5h2.3v1.2h-2.3v4.7c0 1.1.3 1.7 1.2 1.7.4 0 .7-.1.9-.1l.1 1.2c-.3.1-.8.2-1.4.2-.7 0-1.3-.2-1.7-.7-.4-.5-.6-1.2-.6-2.3v-4.8H788v-1.2h1.4v-2.1l1.5-.3zm11.9 6.8c0 3.2-2.2 4.6-4.3 4.6-2.4 0-4.2-1.7-4.2-4.5 0-2.9 1.9-4.6 4.3-4.6 2.5 0 4.2 1.8 4.2 4.5zm-7 .1c0 1.9 1.1 3.3 2.6 3.3s2.6-1.4 2.6-3.4c0-1.5-.7-3.3-2.6-3.3-1.7 0-2.6 1.7-2.6 3.4zm8.7 2.7c.5.3 1.3.6 2.1.6 1.2 0 1.7-.6 1.7-1.3 0-.8-.5-1.2-1.6-1.6-1.6-.6-2.3-1.4-2.3-2.5 0-1.4 1.1-2.6 3-2.6.9 0 1.7.3 2.1.5l-.4 1.2c-.3-.2-1-.5-1.8-.5-.9 0-1.5.5-1.5 1.2s.5 1 1.7 1.5c1.5.6 2.3 1.3 2.3 2.6 0 1.5-1.2 2.6-3.3 2.6-1 0-1.8-.2-2.4-.6l.4-1.1zm92.2 537.5l-1.3 6.7c-.1.5-.1 1-.1 1.4 0 1.4.8 2.2 2.1 2.2 1.6 0 2.7-1 3.2-3.6l1.3-6.8h1.4l-1.3 6.8c-.7 3.4-2.3 4.8-4.8 4.8-1.9 0-3.3-1-3.3-3.4 0-.5 0-1 .2-1.6l1.3-6.6h1.3zm6.9 10c.4.2 1.1.5 1.8.5.9 0 1.6-.6 1.6-1.3 0-.6-.3-1-1.1-1.5-.9-.5-1.5-1.2-1.5-2.1 0-1.4 1.2-2.5 3-2.5.7 0 1.4.2 1.7.4l-.4 1.1c-.3-.2-.8-.4-1.4-.4-.8 0-1.5.5-1.5 1.2 0 .6.4 1 1.1 1.4.9.5 1.5 1.2 1.5 2.1 0 1.7-1.4 2.7-3.1 2.7-.9 0-1.7-.3-2-.6l.3-1zm11.7 1.4c0-.5.1-1.3.2-2.1-.9 1.7-2 2.3-3.2 2.3-1.4 0-2.3-1.1-2.3-2.7 0-2.8 2.1-5.8 5.6-5.8.8 0 1.6.1 2.2.3l-.8 4.2c-.3 1.4-.4 2.9-.4 3.8h-1.3zm.9-7.1c-.2-.1-.5-.1-1-.1-2.1 0-3.8 2.2-3.8 4.5 0 .9.3 1.8 1.4 1.8 1.2 0 2.5-1.5 3-3.7l.4-2.5zm2.4 7.1l1.1-5.8c.2-.9.3-1.7.4-2.4h1.2l-.2 1.6c.7-1.1 1.8-1.8 3-1.8 1 0 2.1.6 2.1 2.3 0 .4-.1.9-.2 1.3l-.9 4.8h-1.4l.9-4.7c.1-.3.1-.7.1-1 0-.8-.3-1.4-1.3-1.4s-2.4 1.2-2.8 3.2l-.7 4h-1.3zm17.7-12l-1.8 9.4c-.2.8-.3 1.8-.4 2.6h-1.3l.2-1.6c-.7 1.2-1.8 1.8-2.9 1.8-1.6 0-2.4-1.3-2.4-3 0-2.9 2.2-5.6 5-5.6.5 0 1.1.1 1.5.3l.7-3.9h1.4zm-2.3 5.1c-.3-.2-.8-.3-1.3-.3-2 0-3.5 2.1-3.5 4.2 0 1 .3 2 1.5 2 1.1 0 2.4-1.2 2.7-3.1l.6-2.8zm10.3 2c0 2.5-1.8 5.1-4.5 5.1-2 0-3.2-1.5-3.2-3.4 0-2.7 1.9-5.2 4.5-5.2 2.2.1 3.2 1.7 3.2 3.5zm-6.2 1.7c0 1.3.7 2.3 1.9 2.3 1.7 0 2.9-2.1 2.9-4 0-.9-.4-2.3-1.9-2.3-1.8 0-2.9 2.1-2.9 4zm10.5 1.4c.6.4 1.5.7 2.4.7 1.3 0 2.5-.8 2.5-2.1 0-.8-.5-1.5-1.7-2.1-1.5-.8-2.3-1.7-2.3-2.9 0-2 1.8-3.3 3.8-3.3 1.1 0 1.9.3 2.3.6l-.5 1.1c-.4-.2-1.1-.5-2-.5-1.4 0-2.2.9-2.2 1.9 0 .9.6 1.5 1.8 2.1 1.4.7 2.2 1.6 2.2 3 0 2-1.6 3.5-4.1 3.5-1.1 0-2.3-.4-2.7-.8l.5-1.2zm10-1.8l-1.8 3.6h-1.5l5.9-11.4h1.7l1.6 11.4H963l-.5-3.6h-3.9zm3.8-1.1l-.4-3.3c-.1-.6-.2-1.4-.2-2.1l-.9 2.1-1.7 3.3h3.2zm3.6 2.9c.6.4 1.5.7 2.4.7 1.3 0 2.5-.8 2.5-2.1 0-.8-.5-1.5-1.7-2.1-1.5-.8-2.3-1.7-2.3-2.9 0-2 1.8-3.3 3.8-3.3 1.1 0 1.9.3 2.3.6l-.5 1.1c-.4-.2-1.1-.5-2-.5-1.4 0-2.2.9-2.2 1.9 0 .9.6 1.5 1.8 2.1 1.4.7 2.2 1.6 2.2 3 0 2-1.6 3.5-4.1 3.5-1.1 0-2.3-.4-2.7-.8l.5-1.2zm7.9 0c.6.4 1.5.7 2.4.7 1.3 0 2.5-.8 2.5-2.1 0-.8-.5-1.5-1.7-2.1-1.5-.8-2.3-1.7-2.3-2.9 0-2 1.8-3.3 3.8-3.3 1.1 0 1.9.3 2.3.6l-.5 1.1c-.4-.2-1.1-.5-2-.5-1.4 0-2.2.9-2.2 1.9 0 .9.6 1.5 1.8 2.1 1.4.7 2.2 1.6 2.2 3 0 2-1.6 3.5-4.1 3.5-1.1 0-2.3-.4-2.7-.8l.5-1.2zm9.3 2.5L990 602h1.1l-6.8 12.2h-1.1zm12.2-12.1h1.4l-1.9 10.2h4.6l-.2 1.2h-6l2.1-11.4zm11.8 6.1h-4.1l-.8 4.1h4.7l-.2 1.2h-6.1l2.2-11.4h5.8l-.2 1.2h-4.4l-.7 3.6h4.1l-.3 1.3zm1.6 3.5c.6.4 1.5.7 2.4.7 1.3 0 2.5-.8 2.5-2.1 0-.8-.5-1.5-1.7-2.1-1.5-.8-2.3-1.7-2.3-2.9 0-2 1.8-3.3 3.8-3.3 1.1 0 1.9.3 2.3.6l-.5 1.1c-.4-.2-1.1-.5-2-.5-1.4 0-2.2.9-2.2 1.9 0 .9.6 1.5 1.8 2.1 1.4.7 2.2 1.6 2.2 3 0 2-1.6 3.5-4.1 3.5-1.1 0-2.3-.4-2.7-.8l.5-1.2zm7.8 0c.6.4 1.5.7 2.4.7 1.3 0 2.5-.8 2.5-2.1 0-.8-.5-1.5-1.7-2.1-1.5-.8-2.3-1.7-2.3-2.9 0-2 1.8-3.3 3.8-3.3 1.1 0 1.9.3 2.3.6l-.5 1.1c-.4-.2-1.1-.5-2-.5-1.4 0-2.2.9-2.2 1.9 0 .9.6 1.5 1.8 2.1 1.4.7 2.2 1.6 2.2 3 0 2-1.6 3.5-4.1 3.5-1.1 0-2.3-.4-2.7-.8l.5-1.2zm-963.1-100c0-.6.4-1.1 1.1-1.1.6 0 .9.4.9 1s-.4 1.1-1.1 1.1c-.5 0-.9-.5-.9-1zm3.6 0c0-.6.4-1.1 1.1-1.1.6 0 .9.4.9 1s-.4 1.1-1.1 1.1c-.5 0-.9-.5-.9-1zm3.6 0c0-.6.4-1.1 1.1-1.1.6 0 .9.4.9 1s-.4 1.1-1.1 1.1c-.6 0-.9-.5-.9-1zm14.5-4.1c0 2.5-1.8 5.1-4.5 5.1-2 0-3.2-1.5-3.2-3.4 0-2.7 1.9-5.2 4.5-5.2 2.3.1 3.2 1.7 3.2 3.5zm-6.2 1.7c0 1.3.7 2.3 1.9 2.3 1.7 0 2.9-2.1 2.9-4 0-.9-.4-2.3-1.9-2.3-1.8 0-2.9 2.1-2.9 4zm10.3 3.2l2.3-12H83l-2.3 12h-1.4zm11.7-4.9c0 2.5-1.8 5.1-4.5 5.1-2 0-3.2-1.5-3.2-3.4 0-2.7 1.9-5.2 4.5-5.2 2.2.1 3.2 1.7 3.2 3.5zm-6.3 1.7c0 1.3.7 2.3 1.9 2.3 1.7 0 2.9-2.1 2.9-4 0-.9-.4-2.3-1.9-2.3-1.7 0-2.9 2.1-2.9 4zm14.7 6.5l1-4.8c-.7 1.1-1.8 1.7-2.8 1.7-1.6 0-2.4-1.4-2.4-3 0-2.7 2-5.6 5.2-5.6 1.1 0 2 .3 2.6.5l-2.1 11.1h-1.5zm2-10.2c-.3-.2-.7-.3-1.4-.3-1.9 0-3.4 2-3.5 4.3 0 1.3.6 2 1.4 2 1.3 0 2.5-1.5 2.9-3.2l.6-2.8zm10.4-1.3l-1.1 5.8c-.2.9-.3 1.7-.4 2.4H109l.2-1.5c-.7 1.1-1.8 1.7-2.9 1.7-1 0-2.1-.5-2.1-2.4 0-.4 0-.8.2-1.4l.9-4.6h1.4l-.9 4.6c-.1.5-.2.8-.2 1.2 0 .8.4 1.4 1.3 1.4 1 0 2.3-1.2 2.6-3l.8-4.2h1.5zm6.8 7.7c-.6.4-1.6.6-2.7.6-2.2 0-3.1-1.5-3.1-3.3 0-2.5 1.8-5.2 4.5-5.2 1.6 0 2.4.9 2.4 2.1 0 2.1-2.4 2.7-5.4 2.7-.1.4 0 1.1.2 1.6.3.7 1 1.1 1.8 1.1 1 0 1.7-.3 2.2-.6l.1 1zm-1.5-6.8c-1.3 0-2.3 1.3-2.7 2.6 2.2 0 3.9-.3 3.9-1.5 0-.7-.5-1.1-1.2-1.1zm10-3.1l-.4 2.2h2l-.2 1.1h-2l-.8 4c-.1.5-.2.9-.2 1.3 0 .5.2.8.8.8.2 0 .5 0 .7-.1l-.1 1.1c-.3.1-.7.2-1.1.2-1.2 0-1.7-.8-1.7-1.6 0-.5.1-.9.2-1.5l.8-4.1h-1.2l.2-1.1h1.2l.4-1.8 1.4-.5zm9.6 2.2l-1.1 5.8c-.2.9-.3 1.7-.4 2.4h-1.3l.2-1.5c-.7 1.1-1.8 1.7-2.9 1.7-1 0-2.1-.5-2.1-2.4 0-.4 0-.8.2-1.4l.9-4.6h1.4l-.9 4.6c-.1.5-.2.8-.2 1.2 0 .8.4 1.4 1.3 1.4 1 0 2.3-1.2 2.6-3l.8-4.2h1.5zm8.3 11.5l1-4.8c-.7 1.1-1.8 1.7-2.8 1.7-1.6 0-2.4-1.4-2.4-3 0-2.7 2-5.6 5.2-5.6 1.1 0 2 .3 2.6.5l-2.1 11.1H145zm2-10.2c-.3-.2-.7-.3-1.4-.3-1.9 0-3.4 2-3.5 4.3 0 1.3.6 2 1.4 2 1.3 0 2.5-1.5 2.9-3.2l.6-2.8zm10.5-1.3l-1.1 5.8c-.2.9-.3 1.7-.4 2.4h-1.3l.2-1.5c-.7 1.1-1.8 1.7-2.9 1.7-1 0-2.1-.5-2.1-2.4 0-.4 0-.8.2-1.4l.9-4.6h1.4l-.9 4.6c-.1.5-.2.8-.2 1.2 0 .8.4 1.4 1.3 1.4 1 0 2.3-1.2 2.6-3l.8-4.2h1.5zm.9 8.2l1.6-8.2h1.4l-1.6 8.2h-1.4zm1.8-10.4c0-.5.4-.9.9-.9s.8.4.8.9c0 .6-.4.9-.9.9-.5-.1-.8-.4-.8-.9zm7.9 9.9c-.6.4-1.6.6-2.7.6-2.2 0-3.1-1.5-3.1-3.3 0-2.5 1.8-5.2 4.5-5.2 1.6 0 2.4.9 2.4 2.1 0 2.1-2.4 2.7-5.4 2.7-.1.4 0 1.1.2 1.6.3.7 1 1.1 1.8 1.1 1 0 1.7-.3 2.2-.6l.1 1zm-1.5-6.8c-1.3 0-2.3 1.3-2.7 2.6 2.2 0 3.9-.3 3.9-1.5 0-.7-.5-1.1-1.2-1.1zm3.3 7.3l1-5.3c.2-1.1.3-2.1.4-2.9h1.2c-.1.6-.1 1.1-.2 1.8.5-1.1 1.4-2 2.5-2h.4l-.3 1.4h-.4c-1.2 0-2.3 1.5-2.6 3.4l-.7 3.6h-1.3zm10.5 0c0-.5.1-1.3.2-2.1-.9 1.7-2 2.3-3.2 2.3-1.4 0-2.3-1.1-2.3-2.7 0-2.8 2.1-5.8 5.6-5.8.8 0 1.6.1 2.2.3l-.8 4.2c-.3 1.4-.4 2.9-.4 3.8h-1.3zm.9-7.1c-.2-.1-.5-.1-1-.1-2.1 0-3.8 2.2-3.8 4.5 0 .9.3 1.8 1.4 1.8 1.2 0 2.5-1.5 3-3.7l.4-2.5zm2.6 5.7c.4.2 1.1.5 1.8.5.9 0 1.6-.6 1.6-1.3 0-.6-.3-1-1.1-1.5-.9-.5-1.5-1.2-1.5-2.1 0-1.4 1.2-2.5 3-2.5.7 0 1.4.2 1.7.4l-.4 1.1c-.3-.2-.8-.4-1.4-.4-.8 0-1.5.5-1.5 1.2 0 .6.4 1 1.1 1.4.9.5 1.5 1.2 1.5 2.1 0 1.7-1.4 2.7-3.1 2.7-.9 0-1.7-.3-2-.6l.3-1zm168.3-260.8l3.3 5.6-1.1.7-2.5-4.3-3.5 2 2.3 4-1.1.7-2.3-4-4.7 2.8-.8-1.4 10.4-6.1zm-.7 18.2c-.8.5-1.5.9-2 1.3l-.7-1.2 1.2-.8c-.8 0-2.1-.3-2.8-1.7-.7-1.2-.9-3 1.8-4.5l4.4-2.6.8 1.4-4.2 2.4c-1.4.8-2.1 1.8-1.4 3.1.5.9 1.5 1.2 2.3 1.1.2 0 .5-.1.8-.3l4.6-2.7.8 1.4-5.6 3.1zm3.2 2.2c-1.8 1.1-1.9 2.7-1.1 4.1.6 1 1.1 1.5 1.6 1.9l-.8.8c-.5-.4-1.2-1-1.9-2.2-1.3-2.3-.6-4.6 1.6-5.9s4.8-1 6.1 1.2c1.4 2.5-.4 4.4-1.7 5.2-.3.2-.5.3-.7.3l-3.1-5.4zm3.3 3.4c.9-.5 2-1.7 1.1-3.2-.8-1.4-2.4-1.2-3.4-.8l2.3 4zm2.4 2.7c.9-.5 1.6-1 2.3-1.4l.7 1.2-1.5.9v.1c1.2-.2 2.3.2 2.9 1.1.1.2.1.3.2.4l-1.3.8c-.1-.2-.1-.3-.2-.5-.6-1-1.7-1.2-2.8-.8-.2.1-.4.2-.7.3l-4 2.3-.8-1.4 5.2-3zm-1.8 6.9l6.4.8 1.7.3-2.4-4.1 1.1-.6 3.3 5.7-.9.5-6.3-.8c-.6-.1-1.2-.2-1.7-.3l2.6 4.4-1.1.6-3.6-6.1.9-.4zm6 12.1l.9-.7c-.8-.1-1.8-.6-2.5-1.7-.9-1.5-.3-2.9.8-3.6 1.8-1.1 3.8 0 5.4 2.9l.2-.1c.6-.4 1.6-1.2.7-2.7-.4-.7-1.1-1.3-1.7-1.6l.7-.8c.8.4 1.6 1.1 2.1 2.1 1.3 2.3.1 3.8-1.4 4.7L367 296c-.7.4-1.3.8-1.7 1.2l-.7-1.3zm3.7-2.4c-.8-1.5-2.1-3.1-3.6-2.2-.9.5-1 1.4-.6 2.1.6 1 1.6 1.2 2.3 1.1.2 0 .3-.1.5-.2l1.4-.8zm15 9.1l-9.1 5.3c-.7.4-1.4.8-1.9 1.2l-.7-1.2 1.3-.8c-1.1.1-2.3-.5-3-1.7-1.1-1.8-.3-4.1 2-5.4 2.5-1.5 4.9-.8 6 1 .7 1.2.6 2.2.2 2.9l4.5-2.6.7 1.3zm-7.4 2.5c.2-.1.4-.3.5-.4.8-.7 1-1.9.4-2.9-.8-1.4-2.6-1.5-4.2-.6-1.5.9-2.4 2.4-1.5 3.8.5.9 1.6 1.4 2.8 1.1l.6-.3 1.4-.7zm1.6 5c-1.8 1.1-1.9 2.7-1.1 4.1.6 1 1.1 1.5 1.6 1.9l-.8.8c-.5-.4-1.2-1-1.9-2.2-1.3-2.3-.6-4.6 1.6-5.9 2.3-1.3 4.8-1 6.1 1.2 1.4 2.5-.4 4.4-1.7 5.2-.3.2-.5.3-.7.3l-3.1-5.4zm3.3 3.4c.9-.5 2-1.7 1.1-3.2-.8-1.4-2.4-1.2-3.4-.8l2.3 4zm8.3-.8l.8 1.4-11.1 6.4-.8-1.4 11.1-6.4zm-5.7 12.4c0 .6.1 1.4.5 2.1.6 1 1.3 1.2 2 .8.7-.4.8-1 .6-2.2-.3-1.6.1-2.7 1-3.2 1.2-.7 2.8-.3 3.7 1.3.4.8.6 1.6.6 2.1l-1.2.2c0-.4-.1-1.1-.5-1.8-.5-.8-1.2-1-1.8-.7-.6.4-.6 1-.4 2.2.3 1.6 0 2.6-1.1 3.3-1.3.8-2.9.3-3.9-1.5-.5-.8-.7-1.7-.7-2.4l1.2-.2zm6.3 5.9c-1.8 1.1-1.9 2.7-1.1 4.1.6 1 1.1 1.5 1.6 1.9l-.8.8c-.5-.4-1.2-1-1.9-2.2-1.3-2.3-.6-4.6 1.6-5.9 2.3-1.3 4.8-1 6.1 1.2 1.4 2.5-.4 4.4-1.7 5.2-.3.2-.5.3-.7.3l-3.1-5.4zm3.3 3.4c.9-.5 2-1.7 1.1-3.2-.8-1.4-2.4-1.2-3.4-.8l2.3 4zm8.3-.8l.8 1.4-11.1 6.4-.8-1.4 11.1-6.4zm-4.9 8.9c-1.8 1.1-1.9 2.7-1.1 4.1.6 1 1.1 1.5 1.6 1.9l-.8.8c-.5-.4-1.2-1-1.9-2.2-1.3-2.3-.6-4.6 1.6-5.9 2.3-1.3 4.8-1 6.1 1.2 1.4 2.5-.4 4.4-1.7 5.2-.3.2-.5.3-.7.3l-3.1-5.4zm3.3 3.4c.9-.5 2-1.7 1.1-3.2-.8-1.4-2.4-1.2-3.4-.8l2.3 4zm.6 10.8c-.4-.2-1.1-.9-1.7-1.9-1.3-2.3-.6-4.6 1.7-6 2.3-1.3 4.9-.7 6.4 1.7.5.8.7 1.6.7 2.1l-1.2.3c0-.4-.1-1-.6-1.8-1-1.7-2.8-1.9-4.4-1-1.7 1-2.2 2.8-1.3 4.3.5.8 1 1.2 1.4 1.5l-1 .8zm11.5-2l-2.2 1.3 1.1 2-1 .6-1.1-2-4.1 2.4c-.9.5-1.3 1.1-.9 1.9.2.4.4.6.6.7l-1 .7c-.3-.2-.6-.6-.9-1.1-.4-.6-.5-1.3-.3-1.8.2-.6.8-1.2 1.7-1.7l4.1-2.4-.7-1.2 1-.6.7 1.2 1.8-1 1.2 1zm0 13.7c-2.8 1.6-5.1.4-6.2-1.4-1.2-2-.6-4.5 1.8-5.9 2.5-1.5 5-.7 6.2 1.4 1.3 2.1.5 4.5-1.8 5.9zm-3.5-6c-1.6 1-2.3 2.6-1.6 4 .8 1.3 2.6 1.6 4.3.6 1.3-.7 2.5-2.3 1.6-3.9-1-1.7-2.9-1.5-4.3-.7zm5.9 6.9c.9-.5 1.6-1 2.3-1.4l.7 1.2-1.5.9v.1c1.2-.2 2.3.2 2.9 1.1.1.2.1.3.2.4l-1.3.8c-.1-.2-.1-.3-.2-.5-.6-1-1.7-1.2-2.8-.8-.2.1-.4.2-.7.3l-4 2.3-.8-1.4 5.2-3zm7.5 7.5l-3.5 4.2c-.4.5-.9 1-1.3 1.4.5-.1 1.2-.3 1.9-.4l5.3-1.1.8 1.4-6.6 1.1c-3.2.5-4.9.6-6.2.2-1-.3-1.6-.9-1.9-1.2l1-1c.3.3.8.6 1.4.8.5.2 1.3.4 2.2.3.2 0 .3 0 .4-.1.1 0 .2-.1.3-.3l5.3-6.8.9 1.5zm-.3 13.5c0 .6.1 1.4.5 2.1.6 1 1.3 1.2 2 .8.7-.4.8-1 .6-2.2-.3-1.6.1-2.7 1-3.2 1.2-.7 2.8-.3 3.7 1.3.4.8.6 1.6.6 2.1l-1.2.2c0-.4-.1-1.1-.5-1.8-.5-.8-1.2-1-1.8-.7-.6.4-.6 1-.4 2.2.3 1.6 0 2.6-1.1 3.3-1.3.8-2.9.3-3.9-1.5-.5-.8-.7-1.7-.7-2.4l1.2-.2zm8 12.3c-.8.5-1.5.9-2 1.3l-.7-1.2 1.2-.8c-.8 0-2.1-.3-2.8-1.7-.7-1.2-.9-3 1.8-4.5l4.4-2.6.8 1.4-4.2 2.4c-1.4.8-2.1 1.8-1.4 3.1.5.9 1.5 1.2 2.3 1.1.2 0 .5-.1.8-.3l4.6-2.7.8 1.4-5.6 3.1zm.5 2.5c0 .6.1 1.4.5 2.1.6 1 1.3 1.2 2 .8.7-.4.8-1 .6-2.2-.3-1.6.1-2.7 1-3.2 1.2-.7 2.8-.3 3.7 1.3.4.8.6 1.6.6 2.1l-1.2.2c0-.4-.1-1.1-.5-1.8-.5-.8-1.2-1-1.8-.7-.6.4-.6 1-.4 2.2.3 1.6 0 2.6-1.1 3.3-1.3.8-2.9.3-3.9-1.5-.5-.8-.7-1.7-.7-2.4l1.2-.2zm9.3 7.5c1-.6 1.7-1 2.4-1.5l.7 1.2-1.3.8c1.2 0 2.3.6 3 1.8 1.1 1.8.3 4.1-2 5.4-2.7 1.6-5 .7-6-1.1-.6-1-.6-2.1-.2-3l-4.1 2.4-.8-1.4 8.3-4.6zm-1.2 2.5c-.2.1-.4.3-.5.4-.8.8-1 2-.4 3 .8 1.4 2.5 1.6 4.2.6 1.5-.9 2.3-2.4 1.5-3.9-.5-.9-1.7-1.4-2.9-1.1-.2.1-.4.1-.6.2l-1.3.8zm6.5 6.3c.9-.5 1.6-1 2.3-1.4l.7 1.2-1.5.8v.1c1.2-.2 2.3.2 2.9 1.1.1.2.1.3.2.4l-1.3.8c-.1-.2-.1-.3-.2-.5-.6-1-1.7-1.2-2.8-.8-.2.1-.4.2-.7.3l-4 2.3-.8-1.4 5.2-2.9zm5.4 12.5c-2.8 1.6-5.1.4-6.2-1.4-1.2-2-.6-4.5 1.8-5.9 2.5-1.5 5-.7 6.2 1.4 1.3 2.2.5 4.5-1.8 5.9zm-3.5-5.9c-1.6 1-2.3 2.6-1.6 4 .8 1.3 2.6 1.6 4.3.6 1.3-.7 2.5-2.3 1.6-3.9s-2.9-1.6-4.3-.7zm5.8 6.9c1-.6 1.7-1 2.4-1.5l.7 1.2-1.3.8c1.2 0 2.3.6 3 1.8 1.1 1.8.3 4.1-2 5.4-2.7 1.6-5 .7-6-1.1-.6-1-.6-2.1-.2-3l-4.1 2.4-.8-1.4 8.3-4.6zm-1.2 2.5c-.2.1-.4.3-.5.4-.8.8-1 2-.4 3 .8 1.4 2.5 1.6 4.2.6 1.5-.9 2.3-2.4 1.5-3.9-.5-.9-1.7-1.4-2.9-1.1-.2.1-.4.1-.6.2l-1.3.8zm1.3 9.3l7.5-4.4.8 1.4-7.5 4.4-.8-1.4zm10.5-4.1c-.5.3-1 .2-1.3-.4-.3-.5-.1-1 .4-1.3.5-.3 1.1-.1 1.4.4.2.5 0 1-.5 1.3zm-4.5 6.5c-1.8 1.1-1.9 2.7-1.1 4.1.6 1 1.1 1.5 1.6 1.9l-.8.8c-.5-.4-1.2-1-1.9-2.2-1.3-2.3-.6-4.6 1.6-5.9 2.3-1.3 4.8-1 6.1 1.2 1.4 2.5-.4 4.4-1.7 5.2-.3.2-.5.3-.7.3l-3.1-5.4zm3.4 3.4c.9-.5 2-1.7 1.1-3.2-.8-1.4-2.4-1.2-3.4-.8l2.3 4zm12.1 5.7l-9.1 5.3c-.7.4-1.4.8-1.9 1.2l-.7-1.2 1.3-.8c-1.1.1-2.3-.5-3-1.7-1.1-1.8-.3-4.1 2-5.4 2.5-1.5 4.9-.8 6 1 .7 1.2.6 2.2.2 2.9l4.5-2.6.7 1.3zm-7.4 2.5c.2-.1.4-.2.5-.4.8-.7 1-1.9.4-2.9-.8-1.4-2.6-1.5-4.2-.6-1.5.9-2.4 2.4-1.5 3.8.5.9 1.6 1.4 2.8 1.1l.6-.3 1.4-.7zm0 10.4l.9-.7c-.8-.1-1.8-.6-2.5-1.7-.9-1.5-.3-2.9.8-3.6 1.8-1.1 3.8 0 5.4 2.9l.2-.1c.6-.4 1.6-1.2.7-2.7-.4-.7-1.1-1.3-1.7-1.6l.7-.8c.8.4 1.6 1.1 2.1 2.1 1.3 2.3.1 3.8-1.4 4.7l-2.8 1.6c-.7.4-1.3.8-1.7 1.2l-.7-1.3zm3.8-2.5c-.8-1.5-2.1-3.1-3.6-2.2-.9.5-1 1.4-.6 2.1.6 1 1.6 1.2 2.3 1.1.2 0 .3-.1.5-.2l1.4-.8zm13 5.9l-9.1 5.3c-.7.4-1.4.8-1.9 1.2l-.7-1.2 1.3-.8c-1.1.1-2.3-.5-3-1.7-1.1-1.8-.3-4.1 2-5.4 2.5-1.5 4.9-.8 6 1 .7 1.2.6 2.2.2 2.9l4.5-2.6.7 1.3zm-7.4 2.4c.2-.1.4-.2.5-.4.8-.7 1-1.9.4-2.9-.8-1.4-2.6-1.5-4.2-.6-1.5.9-2.4 2.4-1.5 3.8.5.9 1.6 1.4 2.8 1.1l.6-.3 1.4-.7zm1.6 5c-1.8 1.1-1.9 2.7-1.1 4.1.6 1 1.1 1.5 1.6 1.9l-.8.8c-.5-.4-1.2-1-1.9-2.2-1.3-2.3-.6-4.6 1.6-5.9 2.3-1.3 4.8-1 6.1 1.2 1.4 2.5-.4 4.4-1.7 5.2-.3.2-.5.3-.7.3l-3.1-5.4zm3.4 3.4c.9-.5 2-1.7 1.1-3.2-.8-1.4-2.4-1.2-3.4-.8l2.3 4zm-1.5 4.7c0 .6.1 1.4.5 2.1.6 1 1.3 1.2 2 .8.7-.4.8-1 .6-2.2-.3-1.6.1-2.7 1-3.2 1.2-.7 2.8-.3 3.7 1.3.4.8.6 1.6.6 2.1l-1.2.2c0-.4-.1-1.1-.5-1.8-.5-.8-1.2-1-1.8-.7-.6.4-.6 1-.4 2.2.3 1.6 0 2.6-1.1 3.3-1.3.8-2.9.3-3.9-1.5-.5-.8-.7-1.7-.7-2.4l1.2-.2zm281.6 60.6c-1.5-.8-3.3-1.7-4.6-2.5 1 1.1 2.1 2.3 3.2 3.6l4 4.8-.6 1-6-1.2c-1.8-.4-3.4-.7-4.8-1.1 1.3.8 3 1.9 4.5 2.9l4.3 2.9-.7 1.3-10.1-6.8 1-1.7 6.1 1.1c1.5.3 2.9.6 4.2 1-.9-.9-1.8-1.9-2.9-3.2l-4-4.8 1-1.7 10.9 5.4-.8 1.3-4.7-2.3zm3.7-3.8c1.9 1 3.3.3 4.1-1.1.6-1 .7-1.7.8-2.3l1.1.3c-.1.6-.3 1.6-1 2.8-1.3 2.3-3.7 2.8-5.9 1.5-2.3-1.3-3.3-3.7-2-5.9 1.4-2.5 4-1.9 5.4-1.1.3.2.5.3.6.4l-3.1 5.4zm1.3-4.6c-.9-.5-2.4-.9-3.3.6-.8 1.4.1 2.7 1 3.4l2.3-4zm.8-3.6c-.8-.5-1.4-.8-2.1-1.1l.7-1.2 1.3.6c-.5-.8-.7-2.1 0-3.3.6-1 2.2-2.3 4.8-.8l4.5 2.6-.8 1.4-4.3-2.5c-1.2-.7-2.5-.8-3.2.5-.5.9-.3 2 .3 2.7.1.2.4.3.6.5l4.5 2.6-.8 1.4-5.5-3.4zm10.6-14.5c2.8 1.6 2.9 4.2 1.8 6.1-1.2 2-3.6 2.8-6 1.4-2.5-1.5-3.1-4-1.8-6.1 1.3-2.2 3.7-2.8 6-1.4zm-3.4 6c1.7 1 3.4.7 4.2-.6.8-1.3.1-3-1.6-4-1.3-.7-3.3-1-4.2.6s.2 3.2 1.6 4zm3.1-8.5c-.9-.5-1.7-.9-2.4-1.3l.7-1.2 1.5.8v-.1c-.8-.9-1-2.1-.4-3 .1-.2.2-.3.3-.4l1.3.7c-.1.1-.2.3-.3.4-.6 1-.2 2.1.7 2.9.2.1.4.3.6.4l4 2.3-.8 1.4-5.2-2.9zm12.4-9.6l-1-.4c.3.8.4 1.9-.2 3-.9 1.5-2.4 1.7-3.5 1.1-1.8-1.1-1.9-3.3-.2-6.2l-.2-.1c-.6-.4-1.8-.8-2.7.7-.4.7-.6 1.6-.6 2.3l-1.1-.2c0-.9.2-1.9.8-2.9 1.3-2.3 3.2-2 4.7-1.1l2.8 1.6c.7.4 1.3.7 1.9.9l-.7 1.3zm-4-2c-.9 1.5-1.6 3.3-.1 4.2.9.5 1.7.2 2.1-.5.6-1 .3-2-.2-2.6-.1-.1-.3-.2-.4-.3l-1.4-.8zm5.9-1.3c-.5-.3-1.2-.8-1.9-1.2l-9.1-5.3.8-1.4 4.7 2.7c-.6-1-.6-2.2.1-3.4 1.1-1.9 3.4-2.3 5.7-1 2.7 1.6 3.1 4 2.1 5.7-.6 1.1-1.6 1.7-2.9 1.7l1.2.8-.7 1.4zm-2.2-3.1c.2.1.4.2.5.2 1.1.3 2.2-.1 2.8-1.1.8-1.4.2-3-1.6-4-1.5-.9-3.3-.8-4.1.6-.5.9-.4 2.2.5 3.1.1.1.3.3.5.4l1.4.8zm5.9-6.4c.5-.3 1.2-.8 1.6-1.5.6-1 .3-1.8-.3-2.1-.7-.4-1.2-.2-2.2.6-1.3 1.1-2.4 1.3-3.3.8-1.2-.7-1.6-2.3-.7-3.9.4-.8 1-1.3 1.5-1.6l.8.9c-.4.2-.9.6-1.3 1.3-.5.8-.3 1.5.3 1.9.6.4 1.2.1 2.1-.7 1.3-1 2.3-1.3 3.4-.7 1.3.8 1.7 2.3.6 4.1-.5.8-1.1 1.5-1.7 1.8l-.8-.9zm-3.7-12.8l2.2 1.3 1.1-2 1 .6-1.1 2 4.1 2.4c.9.5 1.6.6 2.1-.2.2-.4.3-.7.4-.8l1.1.5c0 .3-.2.8-.5 1.3-.4.6-.9 1-1.4 1.1-.6.2-1.4-.1-2.3-.6l-4.1-2.4-.7 1.2-1-.6.7-1.2-1.8-1 .2-1.6zm6.5-.9c-.9-.5-1.7-.9-2.4-1.3l.7-1.2 1.5.8v-.1c-.8-.9-1-2.1-.4-3 .1-.2.2-.3.3-.4l1.3.7c-.1.1-.2.3-.3.4-.6 1-.2 2.1.7 2.9.2.1.4.3.6.4l4 2.3-.8 1.4-5.2-2.9zm10.5-6.2l-1-.4c.3.8.4 1.9-.2 3-.9 1.5-2.4 1.7-3.5 1.1-1.8-1.1-1.9-3.3-.2-6.2l-.2-.1c-.6-.4-1.8-.8-2.7.7-.4.7-.6 1.6-.6 2.3l-1.1-.2c0-.9.2-1.9.8-2.9 1.3-2.3 3.2-2 4.7-1.1l2.8 1.6c.7.4 1.3.7 1.9.9l-.7 1.3zm-3.9-2.1c-.9 1.5-1.6 3.3-.1 4.2.9.5 1.7.2 2.1-.5.6-1 .3-2-.2-2.6-.1-.1-.3-.2-.4-.3l-1.4-.8zm8.7-6.8c0 .5-.2 1.4-.8 2.4-1.3 2.3-3.7 2.9-6 1.5-2.3-1.3-3.1-3.9-1.7-6.4.5-.8 1.1-1.4 1.5-1.7l.9.9c-.4.2-.8.6-1.3 1.4-1 1.7-.3 3.4 1.3 4.3 1.7 1 3.5.5 4.3-1 .5-.8.5-1.4.6-1.9l1.2.5zm4-6.9c0 .5-.2 1.4-.8 2.4-1.3 2.3-3.7 2.9-6 1.5-2.3-1.3-3.1-3.9-1.7-6.4.5-.8 1.1-1.4 1.5-1.7l.9.9c-.4.2-.8.6-1.3 1.4-1 1.7-.3 3.4 1.3 4.3 1.7 1 3.5.5 4.3-1 .5-.8.5-1.4.6-1.9l1.2.5zm-7.6-8.5c.5.3.7.8.3 1.4-.3.5-.9.6-1.3.3-.5-.3-.7-.9-.4-1.4.4-.5.9-.6 1.4-.3zm8.8 7.1l-7.5-4.4.8-1.4 7.5 4.4-.8 1.4zm-5.7-15.1l1.1 3.2-.6 1-1.4-2.7.9-1.5zm7.9 2.4c2.8 1.6 2.9 4.2 1.8 6.1-1.2 2-3.6 2.8-6 1.4-2.5-1.5-3-4-1.8-6.1 1.3-2.2 3.7-2.8 6-1.4zm-3.4 6c1.7 1 3.4.7 4.2-.6.8-1.3.1-3-1.6-4-1.3-.7-3.3-1-4.2.6-.9 1.6.2 3.2 1.6 4zm2.7-8.7c-.8-.5-1.4-.8-2.1-1.1l.7-1.2 1.3.6c-.5-.8-.7-2.1 0-3.3.6-1 2.2-2.3 4.8-.8l4.5 2.6-.8 1.4-4.3-2.5c-1.2-.7-2.5-.8-3.2.5-.5.9-.3 2 .3 2.7.1.2.4.3.6.5l4.5 2.6-.8 1.4-5.5-3.4zm9.4-11.6c1.9 1 3.3.3 4.1-1.1.6-1 .7-1.7.8-2.3l1.1.3c-.1.6-.3 1.6-1 2.8-1.3 2.3-3.7 2.8-5.9 1.5-2.3-1.3-3.3-3.7-2-5.9 1.4-2.5 4-1.9 5.4-1.1.3.2.5.3.6.4l-3.1 5.4zm1.3-4.6c-.9-.5-2.4-.9-3.3.6-.8 1.4.1 2.7 1 3.4l2.3-4zm.8-3.6c-.8-.5-1.4-.8-2.1-1.1l.7-1.2 1.3.6c-.5-.8-.7-2.1 0-3.3.6-1 2.2-2.3 4.8-.8l4.5 2.6-.8 1.4-4.3-2.5c-1.2-.7-2.5-.8-3.2.5-.5.9-.3 2 .3 2.7.1.2.4.3.6.5l4.5 2.6-.8 1.4-5.5-3.4zm1.3-15.1l.8-1.4 11.1 6.4-.8 1.4-11.1-6.4zm15.6-1.5l-1-.4c.3.8.4 1.9-.2 3-.9 1.5-2.4 1.7-3.5 1.1-1.8-1.1-1.9-3.3-.2-6.2l-.2-.1c-.6-.4-1.8-.8-2.7.7-.4.7-.6 1.6-.6 2.3l-1.1-.2c0-.9.2-1.9.8-2.9 1.3-2.3 3.2-2 4.7-1.1l2.8 1.6c.7.4 1.3.7 1.9.9l-.7 1.3zm-3.9-2c-.9 1.5-1.6 3.3-.1 4.2.9.5 1.7.2 2.1-.5.6-1 .3-2-.2-2.6-.1-.1-.3-.2-.4-.3l-1.4-.8zm6.2-5.3c.5-.3 1.2-.8 1.6-1.5.6-1 .3-1.8-.3-2.1-.7-.4-1.2-.2-2.2.6-1.3 1.1-2.4 1.3-3.3.8-1.2-.7-1.6-2.3-.7-3.9.4-.8 1-1.3 1.5-1.6l.8.9c-.4.2-.9.6-1.3 1.3-.5.8-.3 1.5.3 1.9.6.4 1.2.1 2.1-.7 1.3-1 2.3-1.3 3.4-.7 1.3.8 1.7 2.3.6 4.1-.5.8-1.1 1.5-1.7 1.8l-.8-.9zm2-8.3c1.9 1 3.3.3 4.1-1.1.6-1 .7-1.7.8-2.3l1.1.3c-.1.6-.3 1.6-1 2.8-1.3 2.3-3.7 2.8-5.9 1.5s-3.3-3.7-2-5.9c1.4-2.5 4-1.9 5.4-1.1.3.2.5.3.6.4l-3.1 5.4zm1.4-4.6c-.9-.5-2.4-.9-3.3.6-.8 1.4.1 2.7 1 3.4l2.3-4zm.7-3.6c-.8-.5-1.4-.8-2.1-1.1l.7-1.2 1.3.6c-.5-.8-.7-1.9 0-3.2.6-1 1.7-1.4 2.7-1.3-.3-.5-.4-1-.5-1.4-.1-.7 0-1.3.4-2 .6-1 2.1-2.1 4.7-.6l4.4 2.6-.8 1.3-4.3-2.5c-1.5-.8-2.6-.8-3.3.3-.5.8-.2 1.7.3 2.3.2.2.4.4.6.5l4.7 2.7-.8 1.3-4.5-2.6c-1.2-.7-2.4-.7-3 .4-.5.9-.2 1.9.4 2.5.2.2.4.4.6.5l4.6 2.6-.8 1.3-5.3-3zm5-20.7l1.1 3.2-.6 1-1.4-2.7.9-1.5zm10.5 6.7l-1-.4c.3.8.4 1.9-.2 3-.9 1.5-2.4 1.7-3.5 1.1-1.8-1.1-1.9-3.3-.2-6.2l-.2-.1c-.6-.4-1.8-.8-2.7.7-.4.7-.6 1.6-.6 2.3l-1.1-.2c0-.9.2-1.9.8-2.9 1.3-2.3 3.2-2 4.7-1.1l2.8 1.6c.7.4 1.3.7 1.9.9l-.7 1.3zm-4-2c-.9 1.5-1.6 3.3-.1 4.2.9.5 1.7.2 2.1-.5.6-1 .3-2-.2-2.6-.1-.1-.3-.2-.4-.3l-1.4-.8zm.4-4.5c-.8-.5-1.4-.8-2.1-1.1l.7-1.2 1.3.6c-.5-.8-.7-2.1 0-3.3.6-1 2.2-2.3 4.8-.8l4.5 2.6-.8 1.4-4.3-2.5c-1.2-.7-2.5-.8-3.2.5-.5.9-.3 2 .3 2.7.1.2.4.3.6.5l4.5 2.6-.8 1.4-5.5-3.4zm1.7-12.7l2.2 1.3 1.1-2 1 .6-1.1 2 4.1 2.4c.9.5 1.6.6 2.1-.2.2-.4.3-.7.4-.8l1.1.5c0 .3-.2.8-.5 1.3-.4.6-.9 1-1.4 1.1-.6.2-1.4-.1-2.3-.6l-4.1-2.4-.7 1.2-1-.6.7-1.2-1.8-1 .2-1.6zm3-5c.5.3.7.8.3 1.4-.3.5-.9.6-1.3.3-.5-.3-.6-.9-.4-1.4.3-.4.9-.5 1.4-.3zm8.7 7.1l-7.5-4.4.8-1.4 7.5 4.4-.8 1.4zm5-9.1c0 .5-.2 1.4-.8 2.4-1.3 2.3-3.7 2.9-6 1.5-2.3-1.3-3.1-3.9-1.7-6.4.5-.8 1.1-1.4 1.5-1.7l.9.9c-.4.2-.8.6-1.3 1.4-1 1.7-.3 3.4 1.3 4.3 1.7 1 3.5.5 4.3-1 .5-.8.5-1.4.6-1.9l1.2.5zm3.6-5.7l-1-.4c.3.8.4 1.9-.2 3-.9 1.5-2.4 1.7-3.5 1.1-1.8-1.1-1.9-3.3-.2-6.2l-.2-.1c-.6-.4-1.8-.8-2.7.7-.4.7-.6 1.6-.6 2.3l-1.1-.2c0-.9.2-1.9.8-2.9 1.3-2.3 3.2-2 4.7-1.1l2.8 1.6c.7.4 1.3.7 1.9.9l-.7 1.3zm-4-2c-.9 1.5-1.6 3.3-.1 4.2.9.5 1.7.2 2.1-.5.6-1 .3-2-.2-2.6-.1-.1-.3-.2-.4-.3l-1.4-.8zm4.8-7.4c1.9 1 3.3.3 4.1-1.1.6-1 .7-1.7.8-2.3l1.1.3c-.1.6-.3 1.6-1 2.8-1.3 2.3-3.7 2.8-5.9 1.5s-3.3-3.7-2-5.9c1.4-2.5 4-1.9 5.4-1.1.3.2.5.3.6.4l-3.1 5.4zm1.3-4.6c-.9-.5-2.4-.9-3.3.6-.8 1.4.1 2.7 1 3.4l2.3-4zm-.6-10.8c.5.3.7.8.3 1.4-.3.5-.9.6-1.3.3-.5-.3-.7-.9-.4-1.4.3-.5.9-.6 1.4-.3zm8.8 7.1l-7.5-4.4.8-1.4 7.5 4.4-.8 1.4zm-3.4-6.8c-.8-.5-1.4-.8-2.1-1.1l.7-1.2 1.3.6c-.5-.8-.7-1.9 0-3.2.6-1 1.7-1.4 2.7-1.3-.3-.5-.4-1-.5-1.4-.1-.7 0-1.3.4-2 .6-1 2.1-2.1 4.7-.6l4.4 2.6-.8 1.3-4.3-2.5c-1.5-.8-2.6-.8-3.3.3-.5.8-.2 1.7.3 2.3.2.2.4.4.6.5l4.7 2.7-.8 1.3-4.5-2.6c-1.2-.7-2.4-.7-3 .4-.5.9-.2 1.9.4 2.5.2.2.4.4.6.5l4.6 2.6-.8 1.3-5.3-3zm7.9-12.8c-1-.6-1.8-1-2.5-1.4l.7-1.2 1.3.7c-.6-1.1-.6-2.3.1-3.5 1.1-1.8 3.4-2.3 5.7-1 2.7 1.6 3.1 4 2.1 5.8-.6 1-1.5 1.6-2.5 1.6l4.1 2.4-.8 1.4-8.2-4.8zm2.8-.2l.6.3c1.1.3 2.2-.1 2.8-1.1.8-1.4.1-3-1.6-4-1.5-.9-3.3-.8-4.1.6-.5.9-.4 2.2.5 3.1.1.1.3.3.5.4l1.3.7zm9.8-9.9l-1-.4c.3.8.4 1.9-.2 3-.9 1.5-2.4 1.7-3.5 1.1-1.8-1.1-1.9-3.3-.2-6.2l-.2-.1c-.6-.4-1.8-.8-2.7.7-.4.7-.6 1.6-.6 2.3l-1.1-.2c0-.9.2-1.9.8-2.9 1.3-2.3 3.2-2 4.7-1.1l2.8 1.6c.7.4 1.3.7 1.9.9l-.7 1.3zm-3.9-2c-.9 1.5-1.6 3.3-.1 4.2.9.5 1.7.2 2.1-.5.6-1 .3-2-.2-2.6-.1-.1-.3-.2-.4-.3l-1.4-.8zm8.7-6.9c0 .5-.2 1.4-.8 2.4-1.3 2.3-3.7 2.9-6 1.5-2.3-1.3-3.1-3.9-1.7-6.4.5-.8 1.1-1.4 1.5-1.7l.9.9c-.4.2-.8.6-1.3 1.4-1 1.7-.3 3.4 1.3 4.3 1.7 1 3.5.5 4.3-1 .5-.8.5-1.4.6-1.9l1.2.5zm-7.4-8.9l2.2 1.3 1.1-2 1 .6-1.1 2 4.1 2.4c.9.5 1.6.6 2.1-.2.2-.4.3-.7.4-.8l1.1.5c0 .3-.2.8-.5 1.3-.4.6-.9 1-1.4 1.1-.6.2-1.4-.1-2.3-.6l-4.1-2.4-.7 1.2-1-.6.7-1.2-1.8-1 .2-1.6zm11.8-6.8c2.8 1.6 2.9 4.2 1.8 6.1-1.2 2-3.6 2.8-6 1.4-2.5-1.5-3-4-1.8-6.1 1.2-2.2 3.7-2.7 6-1.4zm-3.4 6c1.7 1 3.4.7 4.2-.6.8-1.3.1-3-1.6-4-1.3-.7-3.3-1-4.2.6-.9 1.6.1 3.2 1.6 4zm2.8-21.7l9.1 5.3c.7.4 1.4.8 2 1.1l-.7 1.2-1.3-.7c.6.9.7 2.2 0 3.4-1.1 1.8-3.4 2.3-5.7 1-2.5-1.4-3.2-3.9-2.1-5.7.7-1.2 1.7-1.6 2.5-1.6l-4.5-2.6.7-1.4zm5.8 5.1l-.6-.3c-1-.3-2.1 0-2.7 1.1-.8 1.4-.1 3 1.6 3.9 1.5.9 3.2.9 4.1-.6.5-.9.4-2.1-.5-3-.2-.2-.3-.3-.6-.4l-1.3-.7zm3.5-3.8c1.9 1 3.3.3 4.1-1.1.6-1 .7-1.7.8-2.3l1.1.3c-.1.6-.3 1.6-1 2.8-1.3 2.3-3.7 2.8-5.9 1.5s-3.3-3.7-2-5.9c1.4-2.5 4-1.9 5.4-1.1.3.2.5.3.6.4l-3.1 5.4zm1.4-4.6c-.9-.5-2.4-.9-3.3.6-.8 1.4.1 2.7 1 3.4l2.3-4zm-4.9-6.8l.8-1.4 11.1 6.4-.8 1.4-11.1-6.4zm13.6-1.2c.5-.3 1.2-.8 1.6-1.5.6-1 .3-1.8-.3-2.1-.7-.4-1.2-.2-2.2.6-1.3 1.1-2.4 1.3-3.3.8-1.2-.7-1.6-2.3-.7-3.9.4-.8 1-1.3 1.5-1.6l.8.9c-.4.2-.9.6-1.3 1.3-.5.8-.3 1.5.3 1.9.6.4 1.2.1 2.1-.7 1.3-1 2.3-1.3 3.4-.7 1.3.8 1.7 2.3.6 4.1-.5.8-1.1 1.5-1.7 1.8l-.8-.9zm2-8.4c1.9 1 3.3.3 4.1-1.1.6-1 .7-1.7.8-2.3l1.1.3c-.1.6-.3 1.6-1 2.8-1.3 2.3-3.7 2.8-5.9 1.5s-3.3-3.7-2-5.9c1.4-2.5 4-1.9 5.4-1.1.3.2.5.3.6.4l-3.1 5.4zm1.4-4.6c-.9-.5-2.4-.9-3.3.6-.8 1.4.1 2.7 1 3.4l2.3-4zm-4.8-6.8l.8-1.4 11.1 6.4-.8 1.4-11.1-6.4zm10.1-.1c1.9 1 3.3.3 4.1-1.1.6-1 .7-1.7.8-2.3l1.1.3c-.1.6-.3 1.6-1 2.8-1.3 2.3-3.7 2.8-5.9 1.5s-3.3-3.7-2-5.9c1.4-2.5 4-1.9 5.4-1.1.3.2.5.3.6.4l-3.1 5.4zm1.3-4.5c-.9-.5-2.4-.9-3.3.6-.8 1.4.1 2.7 1 3.4l2.3-4zm9.1-6c0 .5-.2 1.4-.8 2.4-1.3 2.3-3.7 2.9-6 1.5-2.3-1.3-3.1-3.9-1.7-6.4.5-.8 1.1-1.4 1.5-1.7l.9.9c-.4.2-.8.6-1.3 1.4-1 1.7-.3 3.4 1.3 4.3 1.7 1 3.5.5 4.3-1 .5-.8.5-1.4.6-1.9l1.2.5zm-7.4-8.9l2.2 1.3 1.1-2 1 .6-1.1 2 4.1 2.4c.9.5 1.6.6 2.1-.2.2-.4.3-.7.4-.9l1.1.5c0 .3-.2.8-.5 1.3-.4.6-.9 1-1.4 1.1-.6.2-1.4-.1-2.3-.6l-4.1-2.4-.7 1.2-1-.6.7-1.2-1.8-1 .2-1.5zm11.8-6.9c2.8 1.6 2.9 4.2 1.8 6.1-1.2 2-3.6 2.8-6 1.4-2.5-1.5-3.1-4-1.8-6.1 1.2-2.1 3.7-2.7 6-1.4zm-3.4 6.1c1.7 1 3.4.7 4.2-.6.8-1.3.1-3-1.6-4-1.3-.7-3.3-1-4.2.6s.1 3.1 1.6 4zm3-8.6c-.9-.5-1.7-.9-2.4-1.3l.7-1.2 1.5.8v-.1c-.8-.9-1-2.1-.4-3 .1-.2.2-.3.3-.4l1.3.7c-.1.1-.2.3-.3.4-.6 1-.2 2.1.7 2.9.2.1.4.3.6.4l4 2.3-.8 1.4-5.2-2.9z"/>
  <path class="st4" d="M344.1 43.7V48h4.1v1h-4.1v4.3H343V49h-4.1v-1h4.1v-4.2h1.1zm225 564v4.2h4.1v1.1h-4.1v4.3H568V613h-4.1v-1h4.1v-4.2h1.1zm146 0v4.2h4.1v1.1h-4.1v4.3H714V613h-4.1v-1h4.1v-4.2h1.1zM279.8 106.8v1.2h-4.4v-1.2h4.4zm720 0v1.2h-4.4v-1.2h4.4zm-57.7-63.1V48h4.1v1h-4.1v4.3H941V49h-4.1v-1h4.1v-4.2h1.1z"/>
  <path d="M58.2 188.3h-4.7v-1.7h11.4v1.7h-4.7V202h-2v-13.7zm20.9 5.9c0 5.3-3.2 8.1-7.1 8.1-4.1 0-6.9-3.1-6.9-7.8 0-4.9 3-8.1 7.1-8.1 4.2 0 6.9 3.2 6.9 7.8zm-11.9.2c0 3.3 1.8 6.2 4.9 6.2 3.1 0 4.9-2.9 4.9-6.4 0-3.1-1.6-6.3-4.9-6.3-3.3.1-4.9 3.1-4.9 6.5zm27.6-.2c0 5.3-3.2 8.1-7.1 8.1-4.1 0-6.9-3.1-6.9-7.8 0-4.9 3-8.1 7.1-8.1 4.2 0 6.9 3.2 6.9 7.8zm-11.9.2c0 3.3 1.8 6.2 4.9 6.2 3.1 0 4.9-2.9 4.9-6.4 0-3.1-1.6-6.3-4.9-6.3-3.3.1-4.9 3.1-4.9 6.5zm14.5-7.8h2v13.7h6.6v1.7h-8.6v-15.4zm10.5 13c.9.5 2.2 1 3.6 1 2 0 3.2-1.1 3.2-2.6 0-1.4-.8-2.3-2.9-3.1-2.5-.9-4.1-2.2-4.1-4.4 0-2.4 2-4.2 5-4.2 1.6 0 2.7.4 3.4.8l-.5 1.6c-.5-.3-1.5-.7-2.9-.7-2.1 0-2.9 1.3-2.9 2.3 0 1.4.9 2.1 3.1 3 2.6 1 3.9 2.3 3.9 4.5 0 2.4-1.8 4.4-5.4 4.4-1.5 0-3.1-.4-3.9-1l.4-1.6zM67 268c-.9.3-2.6.8-4.7.8-2.3 0-4.2-.6-5.7-2-1.3-1.3-2.1-3.3-2.1-5.7 0-4.6 3.2-7.9 8.3-7.9 1.8 0 3.2.4 3.8.7l-.5 1.6c-.8-.4-1.8-.7-3.4-.7-3.7 0-6.2 2.3-6.2 6.2 0 3.9 2.3 6.2 5.9 6.2 1.3 0 2.2-.2 2.6-.4v-4.6h-3.1v-1.6H67v7.4zm11-6.5h-6v5.5h6.7v1.7H70v-15.4h8.3v1.7H72v4.9h6v1.6zm3.2 7.2v-15.4h2.2l4.9 7.8c1.1 1.8 2 3.4 2.8 5-.2-2.1-.2-3.9-.2-6.3v-6.4h1.9v15.4h-2l-4.9-7.8c-1.1-1.7-2.1-3.5-2.9-5.1h-.1c.1 1.9.2 3.8.2 6.3v6.6h-1.9zm23-7.2h-6v5.5h6.7v1.7h-8.6v-15.4h8.3v1.7h-6.3v4.9h6v1.6zm3.2-7.9c1-.2 2.4-.3 3.8-.3 2.1 0 3.5.4 4.4 1.3.8.7 1.2 1.7 1.2 2.9 0 2-1.3 3.4-2.9 3.9v.1c1.2.4 1.9 1.5 2.3 3.1.5 2.1.9 3.6 1.2 4.2h-2.1c-.3-.4-.6-1.8-1-3.7-.5-2.1-1.3-2.9-3.1-3h-1.9v6.7h-2v-15.2zm2 7h2c2.1 0 3.5-1.2 3.5-2.9 0-2-1.4-2.9-3.5-2.9-1 0-1.6.1-2 .2v5.6zm12.3-7.2v15.4h-2v-15.4h2zm14.2 14.8c-.7.4-2.2.7-4.1.7-4.3 0-7.6-2.7-7.6-7.8 0-4.8 3.3-8.1 8-8.1 1.9 0 3.1.4 3.6.7l-.5 1.6c-.8-.4-1.8-.6-3.1-.6-3.6 0-6 2.3-6 6.3 0 3.8 2.2 6.2 5.9 6.2 1.2 0 2.4-.3 3.2-.6l.6 1.6zm-72.7 60h-6v5.5h6.7v1.7h-8.6V320h8.3v1.7h-6.3v4.9h6v1.6zm3.3-8.1h2v13.7H75v1.7h-8.6v-15.4zm18.7 8.1h-6v5.5h6.7v1.7h-8.6V320h8.3v1.7h-6.3v4.9h6v1.6zm16.2.5c-.1-2.1-.3-4.7-.2-6.6h-.1c-.5 1.8-1.2 3.7-1.9 5.8l-2.7 7.5H95l-2.5-7.3c-.7-2.2-1.3-4.2-1.8-6 0 1.9-.2 4.5-.3 6.8l-.4 6.6h-1.9l1.1-15.4h2.5l2.6 7.4c.6 1.9 1.2 3.6 1.6 5.2h.1c.4-1.6.9-3.2 1.6-5.2l2.7-7.4h2.5l1 15.4h-1.9l-.5-6.8zm13.4-.5h-6v5.5h6.7v1.7h-8.6V320h8.3v1.7h-6.3v4.9h6v1.6zm3.2 7.2V320h2.2l4.9 7.8c1.1 1.8 2 3.4 2.8 5-.2-2.1-.2-3.9-.2-6.3v-6.4h1.9v15.4h-2l-4.9-7.8c-1.1-1.7-2.1-3.5-2.9-5.1h-.1c.1 1.9.2 3.8.2 6.3v6.6H118zm17.9-13.6h-4.7v-1.7h11.4v1.7H138v13.7h-2v-13.7zm8 11.2c.9.5 2.2 1 3.6 1 2 0 3.2-1.1 3.2-2.6 0-1.4-.8-2.3-2.9-3.1-2.5-.9-4.1-2.2-4.1-4.4 0-2.4 2-4.2 5-4.2 1.6 0 2.7.4 3.4.8l-.5 1.6c-.5-.3-1.5-.7-2.9-.7-2.1 0-2.9 1.3-2.9 2.3 0 1.4.9 2.1 3.1 3 2.6 1 3.9 2.3 3.9 4.5 0 2.4-1.8 4.4-5.4 4.4-1.5 0-3.1-.4-3.9-1l.4-1.6zm-75.5 61.3c0 5.3-3.2 8.1-7.1 8.1-4.1 0-6.9-3.1-6.9-7.8 0-4.9 3-8.1 7.1-8.1 4.2 0 6.9 3.2 6.9 7.8zm-11.9.3c0 3.3 1.8 6.2 4.9 6.2 3.1 0 4.9-2.9 4.9-6.4 0-3.1-1.6-6.3-4.9-6.3-3.3 0-4.9 3.1-4.9 6.5zM71 387c.9-.2 2.2-.3 3.6-.3 2 0 3.3.3 4.2 1.1.8.6 1.3 1.5 1.3 2.7 0 1.5-1 2.8-2.6 3.4 1.5.4 3.2 1.6 3.2 3.9 0 1.3-.5 2.3-1.3 3.1-1.1 1-2.8 1.4-5.3 1.4-1.4 0-2.4-.1-3.1-.2V387zm2 6.3h1.8c2.1 0 3.3-1.1 3.3-2.6 0-1.8-1.4-2.5-3.4-2.5-.9 0-1.4.1-1.8.1v5zm0 7.4c.4.1 1 .1 1.7.1 2.1 0 3.9-.8 3.9-3 0-2.1-1.8-3-4-3H73v5.9zm13.5-13.9h2v10.3c0 4.1-2 5.3-4.7 5.3-.7 0-1.6-.2-2.1-.4l.3-1.6c.4.2 1 .3 1.7.3 1.8 0 2.8-.8 2.8-3.8v-10.1zm13.2 8.1h-6v5.5h6.7v1.7h-8.6v-15.4h8.3v1.7h-6.3v4.9h6v1.6zm14 6.8c-.7.4-2.2.7-4.1.7-4.3 0-7.6-2.7-7.6-7.8 0-4.8 3.3-8.1 8-8.1 1.9 0 3.1.4 3.6.7l-.5 1.6c-.8-.4-1.8-.6-3.1-.6-3.6 0-6 2.3-6 6.3 0 3.8 2.2 6.2 5.9 6.2 1.2 0 2.4-.3 3.2-.6l.6 1.6zm6.1-13.2h-4.7v-1.7h11.4v1.7h-4.7v13.7h-2v-13.7zm8 11.2c.9.5 2.2 1 3.6 1 2 0 3.2-1.1 3.2-2.6 0-1.4-.8-2.3-2.9-3.1-2.5-.9-4.1-2.2-4.1-4.4 0-2.4 2-4.2 5-4.2 1.6 0 2.7.4 3.4.8l-.5 1.6c-.5-.3-1.5-.7-2.9-.7-2.1 0-2.9 1.3-2.9 2.3 0 1.4.9 2.1 3.1 3 2.6 1 3.9 2.3 3.9 4.5 0 2.4-1.8 4.4-5.4 4.4-1.5 0-3.1-.4-3.9-1l.4-1.6zM66 490.4c-.7.4-2.2.7-4.1.7-4.3 0-7.6-2.7-7.6-7.8 0-4.8 3.3-8.1 8-8.1 1.9 0 3.1.4 3.6.7l-.5 1.6c-.8-.4-1.8-.6-3.1-.6-3.6 0-6 2.3-6 6.3 0 3.8 2.2 6.2 5.9 6.2 1.2 0 2.4-.3 3.2-.6l.6 1.6zm15.2-7.4c0 5.3-3.2 8.1-7.1 8.1-4.1 0-6.9-3.1-6.9-7.8 0-4.9 3-8.1 7.1-8.1s6.9 3.3 6.9 7.8zm-12 .3c0 3.3 1.8 6.2 4.9 6.2 3.1 0 4.9-2.9 4.9-6.4 0-3.1-1.6-6.3-4.9-6.3-3.2.1-4.9 3.1-4.9 6.5zm27.5.8c-.1-2.1-.3-4.7-.2-6.6h-.1c-.5 1.8-1.2 3.7-1.9 5.8l-2.7 7.5h-1.5l-2.5-7.3c-.7-2.2-1.3-4.2-1.8-6 0 1.9-.2 4.5-.3 6.8l-.4 6.6h-1.9l1.1-15.4H87l2.6 7.4c.6 1.9 1.2 3.6 1.6 5.2h.1c.4-1.6.9-3.2 1.6-5.2l2.7-7.4H98l1 15.4h-1.9l-.4-6.8zm5.4-8.4c1-.2 2.2-.3 3.8-.3 2 0 3.4.5 4.3 1.3.8.7 1.3 1.8 1.3 3.2 0 1.4-.4 2.5-1.2 3.3-1 1.1-2.8 1.7-4.7 1.7-.6 0-1.1 0-1.6-.1v6.2h-2v-15.3zm1.9 7.4c.4.1 1 .2 1.6.2 2.4 0 3.9-1.2 3.9-3.3 0-2-1.4-3-3.6-3-.9 0-1.5.1-1.9.2v5.9zm23.3-.1c0 5.3-3.2 8.1-7.1 8.1-4.1 0-6.9-3.1-6.9-7.8 0-4.9 3-8.1 7.1-8.1 4.2 0 6.9 3.3 6.9 7.8zm-11.9.3c0 3.3 1.8 6.2 4.9 6.2 3.1 0 4.9-2.9 4.9-6.4 0-3.1-1.6-6.3-4.9-6.3-3.3.1-4.9 3.1-4.9 6.5zm14.5 7.6v-15.4h2.2l4.9 7.8c1.1 1.8 2 3.4 2.8 5-.2-2.1-.2-3.9-.2-6.3v-6.4h1.9V491h-2l-4.9-7.8c-1.1-1.7-2.1-3.5-2.9-5.1h-.1c.1 1.9.2 3.8.2 6.3v6.6h-1.9zm23-7.2h-6v5.5h6.7v1.7H145v-15.4h8.3v1.7H147v4.9h6v1.6zm3.2 7.2v-15.4h2.2l4.9 7.8c1.1 1.8 2 3.4 2.8 5-.2-2.1-.2-3.9-.2-6.3v-6.4h1.9V491h-2l-4.9-7.8c-1.1-1.7-2.1-3.5-2.9-5.1h-.1c.1 1.9.2 3.8.2 6.3v6.6h-1.9zm18-13.7h-4.7v-1.7h11.4v1.7h-4.7v13.7h-2v-13.7zm8 11.3c.9.5 2.2 1 3.6 1 2 0 3.2-1.1 3.2-2.6 0-1.4-.8-2.3-2.9-3.1-2.5-.9-4.1-2.2-4.1-4.4 0-2.4 2-4.2 5-4.2 1.6 0 2.7.4 3.4.8l-.5 1.6c-.5-.3-1.5-.7-2.9-.7-2.1 0-2.9 1.3-2.9 2.3 0 1.4.9 2.1 3.1 3 2.6 1 3.9 2.3 3.9 4.5 0 2.4-1.8 4.4-5.4 4.4-1.5 0-3.1-.4-3.9-1l.4-1.6zM57.2 586.9v9.1c0 3.4 1.5 4.9 3.6 4.9 2.3 0 3.7-1.5 3.7-4.9v-9.1h2v9c0 4.7-2.5 6.7-5.8 6.7-3.1 0-5.5-1.8-5.5-6.6v-9.1h2zm15.7 1.7h-4.7v-1.7h11.4v1.7h-4.7v13.7h-2v-13.7zm10.4-1.7v15.4h-2v-15.4h2zm3.5 0h2v13.7h6.6v1.7h-8.6v-15.4zm12.7 0v15.4h-2v-15.4h2zm6.4 1.7h-4.7v-1.7h11.4v1.7h-4.7v13.7h-2v-13.7zm10.4-1.7v15.4h-2v-15.4h2zm11.5 8.2h-6v5.5h6.7v1.7h-8.6v-15.4h8.3v1.7h-6.3v4.9h6v1.6zm2.9 4.8c.9.5 2.2 1 3.6 1 2 0 3.2-1.1 3.2-2.6 0-1.4-.8-2.3-2.9-3.1-2.5-.9-4.1-2.2-4.1-4.4 0-2.4 2-4.2 5-4.2 1.6 0 2.7.4 3.4.8l-.5 1.6c-.5-.3-1.5-.7-2.9-.7-2.1 0-2.9 1.3-2.9 2.3 0 1.4.9 2.1 3.1 3 2.6 1 3.9 2.3 3.9 4.5 0 2.4-1.8 4.4-5.4 4.4-1.5 0-3.1-.4-3.9-1l.4-1.6z"/>
  <g class="st5">
    <path class="st6" d="M338.6 95.5h607.8L642.5 621.9z"/>
    <path d="M943.8 97L642.5 618.9 341.2 97h602.6m5.2-3H336l306.5 530.9L949 94z"/>
  </g>
  <path class="st7" d="M571 32H337"/>
  <path class="st8" d="M1040 626V227"/>
  <path class="st7" d="M947 32H713"/>
  <path d="M411.5 306l-3-5.2-4.8 2.8 3.3 5.8-1.5.8-4.3-7.5 13.4-7.7 4.2 7.2-1.5.8-3.2-5.5-4.2 2.4 3 5.2-1.4.9zm-2.7 5.1c0 1 .2 2.4.9 3.6 1 1.8 2.6 2.3 3.9 1.5 1.3-.7 1.6-1.9 1.2-4.1-.5-2.6-.1-4.6 1.8-5.7 2.1-1.2 4.6-.4 6.1 2.2.8 1.4 1 2.5 1.1 3.3l-1.7.3c0-.6-.1-1.7-.8-2.9-1.1-1.8-2.5-1.9-3.5-1.4-1.3.7-1.4 1.9-1 4.2.4 2.8 0 4.6-2 5.7-2.1 1.2-4.7.7-6.6-2.5-.7-1.3-1.2-2.9-1.1-3.9l1.7-.3zm17 3.6c.6.8 1.4 1.8 2.2 3.2 1 1.7 1.3 3.2 1.1 4.4-.2 1.1-.9 2.1-2.1 2.8-1.2.7-2.4.9-3.5.6-1.5-.4-2.9-1.6-3.8-3.2-.3-.5-.6-1-.7-1.5l-5.4 3.1-1-1.7 13.2-7.7zm-5.5 5.4c.1.4.4.9.7 1.5 1.2 2.1 3 2.8 4.8 1.7 1.8-1 1.9-2.8.8-4.7-.4-.8-.8-1.3-1.1-1.5l-5.2 3zm8.6 16.1l-3-5.2-4.8 2.8 3.3 5.8-1.4.8-4.3-7.5 13.4-7.7 4.2 7.2-1.5.8-3.2-5.5-4.2 2.4 3 5.2-1.5.9zm1.2 15.6c-.7-.5-1.7-1.5-2.7-3.2-2.2-3.8-1.4-8 3-10.5 4.2-2.4 8.7-1.2 11.1 2.9 1 1.7 1.2 2.9 1.2 3.5l-1.7.4c-.1-.8-.4-1.9-1-3-1.8-3.1-5-4.1-8.5-2-3.3 1.9-4.3 5-2.4 8.3.6 1.1 1.4 2 2.2 2.5l-1.2 1.1zm15.2-3.6l-13.4 7.7-1-1.7 13.4-7.7 1 1.7zm1.8 3l4.2 7.2-1.5.8-3.2-5.5-4.4 2.6 2.9 5.1-1.4.8-2.9-5.1-6.1 3.5-1-1.7 13.4-7.7zm6.5 11.4l-13.4 7.7-1-1.7 13.4-7.7 1 1.7zm-5.8 19.8c-.7-.5-1.7-1.5-2.7-3.2-2.2-3.8-1.4-8 3-10.5 4.2-2.4 8.7-1.2 11.1 2.9 1 1.7 1.2 2.9 1.2 3.5l-1.7.4c-.1-.8-.4-1.9-1-3-1.8-3.1-5-4.1-8.5-2-3.3 1.9-4.3 5-2.4 8.3.6 1.1 1.4 2 2.2 2.5l-1.2 1.1zm15.2-3.5l-13.4 7.7-1-1.7 13.4-7.7 1 1.7zm1.6 3.1c.8 1 1.6 2.1 2.4 3.5 1.4 2.5 1.9 4.6 1.5 6.4-.4 1.8-1.6 3.4-3.7 4.7-2.2 1.3-4.4 1.6-6.3 1.1-2-.5-3.8-2.2-5.3-4.8-.7-1.2-1.2-2.3-1.7-3.2l13.1-7.7zm-10.8 8.5c.2.5.5 1.1.9 1.8 2.1 3.7 5.4 4.5 9 2.4 3.2-1.8 4.1-4.8 2-8.4-.5-.9-1-1.5-1.3-1.9l-10.6 6.1zm10.5 11.8l-5 1-1-1.8 16-3.2 1.2 2.1-10.7 12.3-1.1-1.8 3.4-3.9-2.8-4.7zm3.9 3.6l3.1-3.5c.7-.8 1.4-1.5 2-2.1-.9.3-1.8.5-2.8.7l-4.6.9 2.3 4zm10.9 1.2c.8 1 1.6 2.1 2.4 3.5 1.4 2.5 1.9 4.6 1.5 6.4-.4 1.8-1.6 3.4-3.7 4.7-2.2 1.3-4.4 1.6-6.3 1.1-2-.5-3.8-2.2-5.3-4.8-.7-1.2-1.2-2.3-1.7-3.2l13.1-7.7zm-10.8 8.6c.2.5.5 1.1.9 1.8 2.1 3.7 5.4 4.5 9 2.4 3.2-1.8 4.1-4.8 2-8.4-.5-.9-1-1.5-1.3-1.9l-10.6 6.1z"/>
  <path class="st7" d="M395 277L289.2 94M596 625.4L491 443"/>
  <path d="M823.4 395.4c0 .8-.4 2.3-1.4 3.9-2.1 3.8-6.1 5.3-10.6 2.8-4.2-2.4-5.5-6.8-3.1-11 .9-1.7 1.9-2.5 2.4-2.9l1.2 1.2c-.7.5-1.5 1.3-2.1 2.4-1.8 3.2-.9 6.4 2.6 8.4 3.3 1.9 6.5 1.1 8.3-2.1.6-1.1 1-2.3 1-3.2l1.7.5zm-11.8-9.5l1-1.7 12 6.8 3.2-5.8 1.5.8-4.2 7.5-13.5-7.6zm15.8-6.5l3.5 3.8-1 1.8-10.9-12.2 1.2-2.1 16.1 3-1 1.9-5-.9-2.9 4.7zm1.1-5.2l-4.6-.9c-1-.2-2-.4-2.9-.7.7.6 1.4 1.3 2.1 2.1l3.2 3.5 2.2-4zm-4.5-9.9c.3-1 .9-2.3 1.6-3.5 1-1.9 2.1-2.9 3.3-3.3 1-.3 2.1-.2 3.2.4 1.8 1 2.3 2.8 2 4.5h.1c.9-.8 2.3-.9 3.8-.5 2.1.6 3.6 1 4.3 1l-1 1.8c-.5 0-1.8-.3-3.7-.9-2.1-.6-3.2-.3-4.1 1.2l-.9 1.6 5.8 3.3-1 1.7-13.4-7.3zm7.1 1.7l1-1.8c1-1.9.7-3.6-.9-4.5-1.7-1-3.2-.1-4.3 1.7-.5.8-.7 1.5-.8 1.8l5 2.8zm-.3-14.3l13.5 7.6-1 1.7-13.5-7.6 1-1.7zm1.9-3c.4-1.1 1-2.5 1.8-3.9 1.4-2.5 3-4 4.7-4.5 1.8-.6 3.7-.4 5.9.8 2.2 1.2 3.6 2.9 4.1 4.9.6 2 .1 4.4-1.4 7-.7 1.2-1.3 2.2-1.9 3.1l-13.2-7.4zm12.9 5c.3-.4.7-1 1.1-1.7 2.1-3.7 1.1-6.9-2.5-9-3.2-1.8-6.2-1.1-8.3 2.5-.5.9-.8 1.6-1 2.1l10.7 6.1zm4.7-15.1l3.5 3.8-1 1.8-11-12.2 1.2-2.1 16.1 3-1 1.9-5-.9-2.8 4.7zm1.1-5.2l-4.6-.9c-1-.2-2-.4-2.9-.7.7.6 1.4 1.3 2.1 2l3.2 3.5 2.2-3.9zm-4.5-9.9c.4-1.1 1-2.5 1.8-3.9 1.4-2.5 3-4 4.7-4.5 1.8-.6 3.7-.4 5.9.8 2.2 1.2 3.6 2.9 4.1 4.9.6 2 .1 4.4-1.4 7-.7 1.2-1.3 2.2-1.9 3.1l-13.2-7.4zm12.9 4.9c.3-.4.7-1 1.1-1.7 2.1-3.7 1.1-6.9-2.5-9-3.2-1.8-6.2-1.1-8.3 2.5-.5.9-.8 1.6-1 2.1l10.7 6.1z"/>
  <path class="st7" d="M800.6 422L685.3 627.2m300.6-535L870.6 297.4"/>
  <path d="M595.9 240.4v32.3h-4.2v-32.3h4.2zm13.4 3.5h-9.8v-3.5h23.9v3.5h-9.9v28.7h-4.2v-28.7zm38.9 27.7c-1.5.8-4.6 1.5-8.5 1.5-9.1 0-15.9-5.7-15.9-16.3 0-10.1 6.8-17 16.9-17 4 0 6.6.9 7.7 1.4l-1 3.4c-1.6-.8-3.8-1.3-6.5-1.3-7.6 0-12.6 4.8-12.6 13.3 0 7.9 4.5 13 12.4 13 2.5 0 5.1-.5 6.8-1.3l.7 3.3zm4.6-4c1.9 1.1 4.6 2.1 7.5 2.1 4.3 0 6.8-2.3 6.8-5.5 0-3-1.7-4.7-6.1-6.4-5.3-1.9-8.5-4.6-8.5-9.1 0-5 4.2-8.8 10.4-8.8 3.3 0 5.7.8 7.1 1.6l-1.1 3.4c-1.1-.6-3.2-1.5-6.1-1.5-4.4 0-6.1 2.6-6.1 4.8 0 3 2 4.5 6.4 6.2 5.5 2.1 8.2 4.7 8.2 9.5 0 5-3.7 9.3-11.3 9.3-3.1 0-6.5-.9-8.2-2.1l1-3.5zm23.7 0c1.9 1.1 4.6 2.1 7.5 2.1 4.3 0 6.8-2.3 6.8-5.5 0-3-1.7-4.7-6.1-6.4-5.3-1.9-8.5-4.6-8.5-9.1 0-5 4.2-8.8 10.4-8.8 3.3 0 5.7.8 7.1 1.6l-1.1 3.4c-1.1-.6-3.2-1.5-6.1-1.5-4.4 0-6.1 2.6-6.1 4.8 0 3 2 4.5 6.4 6.2 5.5 2.1 8.2 4.7 8.2 9.5 0 5-3.7 9.3-11.3 9.3-3.1 0-6.5-.9-8.2-2.1l1-3.5z"/>
</svg>
