<svg id="Layer_1" xmlns="http://www.w3.org/2000/svg" viewBox="0 0 1091 531.8">
  <style>
    .st0{opacity:0.25;} .st1{fill:none;stroke:#FF7BAC;stroke-width:2;stroke-miterlimit:10;} .st2{fill:none;stroke:#0071BC;stroke-width:4;stroke-miterlimit:10;} .st3{opacity:0.3;fill:#0071BC;}
  </style>
  <path class="st0 st1" d="M1064.6 134.3H26m1039 66.5H26.4M1065 267.3H96m969 66.5H26.4M1065 300.6H96m969 99.7H96m969-33.2H96m969-132.5H96m969-67.5H96m969-65.5H96m969-33.8H26.4m1038.6 399H26.4M1065 433.6H96m853 98.2v-464m115.6 464v-464M229 531.8v-464m121 464v-464m134 464v-464m113 464v-464"/>
  <path class="st2" d="M1064.6 466.8H229"/>
  <path d="M43.6 505c.8.5 2 .9 3.3.9 1.9 0 2.9-1 2.9-2.4 0-1.3-.8-2.1-2.7-2.8-2.3-.8-3.7-2-3.7-4 0-2.2 1.8-3.8 4.6-3.8 1.4 0 2.5.3 3.1.7l-.5 1.5c-.5-.2-1.4-.7-2.7-.7-1.9 0-2.7 1.1-2.7 2.1 0 1.3.9 2 2.8 2.7 2.4.9 3.6 2.1 3.6 4.1 0 2.2-1.6 4-4.9 4-1.4 0-2.8-.4-3.6-.9l.5-1.4zm17.9-4.4H56v5.1h6.1v1.5h-7.9v-14.1h7.6v1.5H56v4.4h5.5v1.6zm5.9-5.9h-4.3v-1.5h10.4v1.5h-4.3v12.5h-1.8v-12.5zm11.2 0h-4.3v-1.5h10.4v1.5h-4.3v12.5h-1.8v-12.5zm9.5-1.6v14.1h-1.8v-14.1h1.8zm3.2 14.1v-14.1h2l4.5 7.1c1 1.6 1.9 3.1 2.5 4.6-.2-1.9-.2-3.6-.2-5.8v-5.9h1.7v14.1H100l-4.5-7.1c-1-1.6-1.9-3.2-2.6-4.7h-.1c.1 1.8.1 3.5.1 5.8v6h-1.6zm24.5-.6c-.8.3-2.4.8-4.3.8-2.1 0-3.9-.5-5.3-1.9-1.2-1.2-2-3-2-5.2 0-4.2 2.9-7.3 7.6-7.3 1.6 0 2.9.4 3.5.6l-.4 1.5c-.8-.3-1.7-.6-3.1-.6-3.4 0-5.7 2.1-5.7 5.7s2.1 5.7 5.4 5.7c1.2 0 2-.2 2.4-.4v-4.2H111v-1.5h4.6v6.8zm2.5-1.6c.8.5 2 .9 3.3.9 1.9 0 2.9-1 2.9-2.4 0-1.3-.8-2.1-2.7-2.8-2.3-.8-3.7-2-3.7-4 0-2.2 1.8-3.8 4.6-3.8 1.4 0 2.5.3 3.1.7l-.5 1.5c-.5-.2-1.4-.7-2.7-.7-1.9 0-2.7 1.1-2.7 2.1 0 1.3.9 2 2.8 2.7 2.4.9 3.6 2.1 3.6 4.1 0 2.2-1.6 4-4.9 4-1.4 0-2.8-.4-3.6-.9l.5-1.4zm23.8 2.2c-.4-.4-.8-.8-1.3-1.4-1.2 1.1-2.6 1.6-4.1 1.6-2.7 0-4.3-1.8-4.3-3.9 0-1.9 1.1-3.2 2.8-4.1v-.1c-.7-.9-1.2-1.9-1.2-2.9 0-1.7 1.2-3.5 3.6-3.5 1.8 0 3.1 1.2 3.1 3 0 1.5-.9 2.7-3.1 3.8v.1c1.2 1.4 2.5 2.9 3.4 3.9.6-1 1.1-2.3 1.4-4.1h1.7c-.4 2.2-1 4-2 5.2.8.8 1.5 1.6 2.3 2.5h-2.3zm-2.2-2.4c-.8-.9-2.4-2.6-4-4.4-.8.5-1.8 1.4-1.8 2.9 0 1.6 1.2 2.8 2.9 2.8 1.2 0 2.2-.6 2.9-1.3zm-4.3-8.6c0 1 .5 1.8 1.1 2.5 1.4-.8 2.3-1.6 2.3-2.8 0-.9-.5-1.8-1.6-1.8-1.2.1-1.8 1-1.8 2.1zm16.5-1.5h-4.3v-1.5h10.4v1.5H154v12.5h-1.8v-12.5zm19.2 5.3c0 4.8-2.9 7.4-6.5 7.4-3.7 0-6.3-2.9-6.3-7.1 0-4.5 2.8-7.4 6.5-7.4 3.8 0 6.3 2.9 6.3 7.1zm-10.9.3c0 3 1.6 5.7 4.5 5.7s4.5-2.7 4.5-5.8c0-2.8-1.5-5.7-4.5-5.7-3-.1-4.5 2.7-4.5 5.8zm25.3-.3c0 4.8-2.9 7.4-6.5 7.4-3.7 0-6.3-2.9-6.3-7.1 0-4.5 2.8-7.4 6.5-7.4 3.8 0 6.3 2.9 6.3 7.1zm-10.9.3c0 3 1.6 5.7 4.5 5.7s4.5-2.7 4.5-5.8c0-2.8-1.5-5.7-4.5-5.7-3-.1-4.5 2.7-4.5 5.8zm13.3-7.2h1.8v12.5h6v1.5h-7.8v-14zm9.6 11.9c.8.5 2 .9 3.3.9 1.9 0 2.9-1 2.9-2.4 0-1.3-.8-2.1-2.7-2.8-2.3-.8-3.7-2-3.7-4 0-2.2 1.8-3.8 4.6-3.8 1.4 0 2.5.3 3.1.7l-.5 1.5c-.5-.2-1.4-.7-2.7-.7-1.9 0-2.7 1.1-2.7 2.1 0 1.3.9 2 2.8 2.7 2.4.9 3.6 2.1 3.6 4.1 0 2.2-1.6 4-4.9 4-1.4 0-2.8-.4-3.6-.9l.5-1.4zM416.8 41.3c-.9.3-2.8.9-5 .9-2.4 0-4.5-.6-6-2.1-1.4-1.3-2.3-3.5-2.3-6 0-4.8 3.3-8.4 8.8-8.4 1.9 0 3.3.4 4 .7l-.5 1.7c-.9-.4-1.9-.7-3.6-.7-3.9 0-6.5 2.4-6.5 6.5s2.5 6.5 6.2 6.5c1.4 0 2.3-.2 2.8-.4v-4.8h-3.3v-1.7h5.3v7.8zm3.1-7.2c0-1.4 0-2.5-.1-3.6h1.8l.1 2.3h.1c.5-1.6 1.8-2.5 3.2-2.5.2 0 .4 0 .6.1v2c-.2 0-.4-.1-.7-.1-1.5 0-2.5 1.1-2.8 2.7 0 .3-.1.6-.1 1v6.2h-2.1v-8.1zm14.1 8l-.2-1.5h-.1c-.6.9-1.9 1.7-3.6 1.7-2.4 0-3.6-1.7-3.6-3.3 0-2.8 2.5-4.3 7-4.3v-.2c0-1-.3-2.7-2.6-2.7-1.1 0-2.2.3-3 .9l-.5-1.4c1-.6 2.4-1 3.8-1 3.6 0 4.4 2.4 4.4 4.8v4.3c0 1 0 2 .2 2.8H434zm-.3-6c-2.3 0-4.9.4-4.9 2.6 0 1.4.9 2 2 2 1.5 0 2.5-1 2.8-1.9.1-.2.1-.5.1-.7v-2zm1.1-10.7l-2.9 3.4h-1.5l2.1-3.4h2.3zm4.6 16.7v-10h-1.6v-1.6h1.6v-.6c0-3.1 1.8-5.1 5.1-5.1 1.1 0 2.4.3 3 .8l-.6 1.6c-.5-.4-1.4-.7-2.4-.7-2.2 0-2.9 1.6-2.9 3.4v.6h6.7v11.6h-2.1v-10h-4.7v10h-2.1zm20.6-.5c-.6.3-1.8.7-3.3.7-3.5 0-5.8-2.4-5.8-5.9 0-3.6 2.4-6.2 6.2-6.2 1.2 0 2.4.3 2.9.6l-.5 1.6c-.5-.3-1.3-.6-2.4-.6-2.7 0-4.1 2-4.1 4.4 0 2.7 1.7 4.3 4 4.3 1.2 0 2-.3 2.6-.6l.4 1.7zm12.9-5.4c0 4.3-3 6.2-5.8 6.2-3.1 0-5.6-2.3-5.6-6 0-3.9 2.5-6.2 5.8-6.2s5.6 2.4 5.6 6zm-9.3.1c0 2.5 1.5 4.5 3.5 4.5s3.5-1.9 3.5-4.5c0-2-1-4.5-3.5-4.5s-3.5 2.3-3.5 4.5zm27-11.3v14c0 1 0 2.2.1 3h-1.9l-.1-2c-.6 1.3-2.1 2.3-4 2.3-2.8 0-5-2.4-5-5.9 0-3.9 2.4-6.2 5.2-6.2 1.8 0 3 .8 3.5 1.8v-7h2.2zm-2.1 10.2c0-.3 0-.6-.1-.9-.3-1.3-1.5-2.4-3-2.4-2.2 0-3.5 1.9-3.5 4.5 0 2.4 1.2 4.3 3.4 4.3 1.4 0 2.7-.9 3.1-2.5.1-.3.1-.6.1-.9v-2.1zm6.8 1.4c0 2.9 1.9 4 4 4 1.5 0 2.4-.3 3.2-.6l.4 1.5c-.7.3-2 .7-3.9.7-3.6 0-5.7-2.4-5.7-5.9 0-3.5 2.1-6.3 5.4-6.3 3.8 0 4.8 3.3 4.8 5.5 0 .4 0 .8-.1 1h-8.1zm6.2-1.5c0-1.3-.6-3.4-2.9-3.4-2.1 0-3.1 2-3.2 3.4h6.1zm10.9 1.5c0 2.9 1.9 4 4 4 1.5 0 2.4-.3 3.2-.6l.4 1.5c-.7.3-2 .7-3.9.7-3.6 0-5.7-2.4-5.7-5.9 0-3.5 2.1-6.3 5.4-6.3 3.8 0 4.8 3.3 4.8 5.5 0 .4 0 .8-.1 1h-8.1zm6.2-1.5c0-1.3-.6-3.4-2.9-3.4-2.1 0-3.1 2-3.2 3.4h6.1zm4.4 4.8c.6.4 1.7.8 2.8.8 1.5 0 2.3-.8 2.3-1.7 0-1-.6-1.6-2.2-2.1-2.1-.7-3.1-1.9-3.1-3.3 0-1.9 1.5-3.4 4-3.4 1.2 0 2.2.3 2.9.7l-.5 1.5c-.5-.3-1.3-.7-2.4-.7-1.2 0-1.9.7-1.9 1.6 0 1 .7 1.4 2.2 2 2 .8 3 1.8 3 3.5 0 2-1.6 3.5-4.3 3.5-1.3 0-2.4-.3-3.3-.8l.5-1.6zm9.8-5.7c0-1.5 0-2.7-.1-3.8h1.9l.1 2c.9-1.4 2.2-2.3 4.1-2.3 2.8 0 4.9 2.4 4.9 5.9 0 4.2-2.5 6.2-5.3 6.2-1.5 0-2.9-.7-3.6-1.8v6.3h-2.1V34.2zm2.1 3.1c0 .3 0 .6.1.9.4 1.5 1.7 2.5 3.2 2.5 2.2 0 3.5-1.8 3.5-4.5 0-2.3-1.2-4.3-3.5-4.3-1.4 0-2.8 1-3.2 2.6-.1.3-.1.6-.1.9v1.9zm12.7-.7c0 2.9 1.9 4 4 4 1.5 0 2.4-.3 3.2-.6l.4 1.5c-.7.3-2 .7-3.9.7-3.6 0-5.7-2.4-5.7-5.9 0-3.5 2.1-6.3 5.4-6.3 3.8 0 4.8 3.3 4.8 5.5 0 .4 0 .8-.1 1h-8.1zm6.2-1.5c0-1.3-.6-3.4-2.9-3.4-2.1 0-3.1 2-3.2 3.4h6.1zm12.9 6.5c-.6.3-1.8.7-3.3.7-3.5 0-5.8-2.4-5.8-5.9 0-3.6 2.4-6.2 6.2-6.2 1.2 0 2.4.3 2.9.6l-.5 1.6c-.5-.3-1.3-.6-2.4-.6-2.7 0-4.1 2-4.1 4.4 0 2.7 1.7 4.3 4 4.3 1.2 0 2-.3 2.6-.6l.4 1.7zm4.9-14.4c0 .7-.5 1.3-1.3 1.3-.7 0-1.3-.6-1.3-1.3 0-.7.6-1.3 1.3-1.3.8 0 1.3.5 1.3 1.3zm-2.4 14.9V30.4h2.1V42h-2.1zm5.8 0v-10h-1.6v-1.6h1.6v-.6c0-3.1 1.8-5.1 5.1-5.1 1.1 0 2.4.3 3 .8l-.6 1.6c-.5-.4-1.4-.7-2.4-.7-2.2 0-2.9 1.6-2.9 3.4v.6h6.7v11.6h-2.1v-10h-4.7v10H575zm20.7-.5c-.6.3-1.8.7-3.3.7-3.5 0-5.8-2.4-5.8-5.9 0-3.6 2.4-6.2 6.2-6.2 1.2 0 2.4.3 2.9.6l-.5 1.6c-.5-.3-1.3-.6-2.4-.6-2.7 0-4.1 2-4.1 4.4 0 2.7 1.7 4.3 4 4.3 1.2 0 2-.3 2.6-.6l.4 1.7zm4.8-14.4c0 .7-.5 1.3-1.3 1.3-.7 0-1.3-.6-1.3-1.3 0-.7.6-1.3 1.3-1.3.8 0 1.3.5 1.3 1.3zm-2.4 14.9V30.4h2.1V42h-2.1zM613.8 25v14c0 1 0 2.2.1 3H612l-.1-2c-.6 1.3-2.1 2.3-4 2.3-2.8 0-5-2.4-5-5.9 0-3.9 2.4-6.2 5.2-6.2 1.8 0 3 .8 3.5 1.8v-7h2.2zm-2.1 10.2c0-.3 0-.6-.1-.9-.3-1.3-1.5-2.4-3-2.4-2.2 0-3.5 1.9-3.5 4.5 0 2.4 1.2 4.3 3.4 4.3 1.4 0 2.7-.9 3.1-2.5.1-.3.1-.6.1-.9v-2.1zm12 6.9l-.2-1.5h-.1c-.6.9-1.9 1.7-3.6 1.7-2.4 0-3.6-1.7-3.6-3.3 0-2.8 2.5-4.3 7-4.3v-.2c0-1-.3-2.7-2.6-2.7-1.1 0-2.2.3-3 .9l-.5-1.4c1-.6 2.4-1 3.8-1 3.6 0 4.4 2.4 4.4 4.8v4.3c0 1 0 2 .2 2.8h-1.8zm-.3-6c-2.3 0-4.9.4-4.9 2.6 0 1.4.9 2 2 2 1.5 0 2.5-1 2.8-1.9.1-.2.1-.5.1-.7v-2zM638.9 25v14c0 1 0 2.2.1 3h-1.9l-.1-2c-.6 1.3-2.1 2.3-4 2.3-2.8 0-5-2.4-5-5.9 0-3.9 2.4-6.2 5.2-6.2 1.8 0 3 .8 3.5 1.8v-7h2.2zm-2.1 10.2c0-.3 0-.6-.1-.9-.3-1.3-1.5-2.4-3-2.4-2.2 0-3.5 1.9-3.5 4.5 0 2.4 1.2 4.3 3.4 4.3 1.4 0 2.7-.9 3.1-2.5.1-.3.1-.6.1-.9v-2.1zm12.8-9.3v16.2h-2.1V25.9h2.1zm6.8 1.8h-4.9v-1.8h12v1.8h-4.9v14.4h-2.1V27.7zm19.5 13.8c-.8.4-2.3.8-4.3.8-4.6 0-8-2.9-8-8.2 0-5.1 3.4-8.5 8.4-8.5 2 0 3.3.4 3.8.7l-.5 1.7c-.8-.4-1.9-.7-3.3-.7-3.8 0-6.3 2.4-6.3 6.7 0 4 2.3 6.5 6.2 6.5 1.3 0 2.6-.3 3.4-.7l.6 1.7zm2.3-2c.9.6 2.3 1.1 3.7 1.1 2.1 0 3.4-1.1 3.4-2.8 0-1.5-.9-2.4-3-3.2-2.6-.9-4.3-2.3-4.3-4.6 0-2.5 2.1-4.4 5.2-4.4 1.7 0 2.9.4 3.6.8l-.6 1.7c-.5-.3-1.6-.8-3.1-.8-2.2 0-3 1.3-3 2.4 0 1.5 1 2.3 3.2 3.1 2.7 1.1 4.1 2.4 4.1 4.8 0 2.5-1.8 4.7-5.7 4.7-1.6 0-3.3-.5-4.1-1l.6-1.8zm11.8 0c.9.6 2.3 1.1 3.7 1.1 2.1 0 3.4-1.1 3.4-2.8 0-1.5-.9-2.4-3-3.2-2.6-.9-4.3-2.3-4.3-4.6 0-2.5 2.1-4.4 5.2-4.4 1.7 0 2.9.4 3.6.8l-.6 1.7c-.5-.3-1.6-.8-3.1-.8-2.2 0-3 1.3-3 2.4 0 1.5 1 2.3 3.2 3.1 2.7 1.1 4.1 2.4 4.1 4.8 0 2.5-1.8 4.7-5.7 4.7-1.6 0-3.3-.5-4.1-1l.6-1.8zM30.3 433.9c0-.7.1-1.4.2-2 .1-.6.3-1.1.6-1.5.3-.4.6-.7 1-.9s.9-.3 1.4-.3c.6 0 1.1.1 1.5.3s.7.5 1 .9c.3.4.4.9.5 1.5.1.6.2 1.2.2 2 0 .7-.1 1.4-.2 2-.1.6-.3 1.1-.6 1.5-.3.4-.6.7-1 .9-.4.2-.9.3-1.4.3-.6 0-1.1-.1-1.5-.3s-.7-.6-1-1c-.3-.4-.4-.9-.6-1.5 0-.6-.1-1.2-.1-1.9zm1.1 0v1.2l3.9-3.5c-.1-.5-.4-.8-.7-1.1-.3-.3-.7-.4-1.2-.4-.8 0-1.3.3-1.6 1-.3.6-.4 1.5-.4 2.8zm4.2 0c0-.5 0-.9-.1-1.3l-3.8 3.5c.1.5.4.9.7 1.2.3.3.7.4 1.2.4.8 0 1.3-.3 1.6-.9.2-.6.4-1.6.4-2.9zm5.2-4.5h.9v10.8h-.9v-10.8zm5.1 4.5c0-.7.1-1.4.2-2 .1-.6.3-1.1.6-1.5.3-.4.6-.7 1-.9s.9-.3 1.4-.3c.6 0 1.1.1 1.5.3s.7.5 1 .9c.3.4.4.9.5 1.5.1.6.2 1.2.2 2 0 .7-.1 1.4-.2 2-.1.6-.3 1.1-.6 1.5-.3.4-.6.7-1 .9-.4.2-.9.3-1.4.3-.6 0-1.1-.1-1.5-.3s-.7-.6-1-1c-.3-.4-.4-.9-.6-1.5-.1-.6-.1-1.2-.1-1.9zm1 0v1.2l3.9-3.5c-.1-.5-.4-.8-.7-1.1-.3-.3-.7-.4-1.2-.4-.8 0-1.3.3-1.6 1-.2.6-.4 1.5-.4 2.8zm4.2 0c0-.5 0-.9-.1-1.3l-3.8 3.5c.1.5.4.9.7 1.2.3.3.7.4 1.2.4.8 0 1.3-.3 1.6-.9.3-.6.4-1.6.4-2.9zm5.3-4.5h.9v10.8h-.9v-10.8zm5 4.5c0-.7.1-1.4.2-2 .1-.6.3-1.1.6-1.5.3-.4.6-.7 1-.9s.9-.3 1.4-.3c.6 0 1.1.1 1.5.3s.7.5 1 .9c.3.4.4.9.5 1.5.1.6.2 1.2.2 2 0 .7-.1 1.4-.2 2-.1.6-.3 1.1-.6 1.5-.3.4-.6.7-1 .9-.4.2-.9.3-1.4.3-.6 0-1.1-.1-1.5-.3s-.7-.6-1-1c-.3-.4-.4-.9-.6-1.5 0-.6-.1-1.2-.1-1.9zm1.1 0v1.2l3.9-3.5c-.1-.5-.4-.8-.7-1.1-.3-.3-.7-.4-1.2-.4-.8 0-1.3.3-1.6 1-.3.6-.4 1.5-.4 2.8zm4.2 0c0-.5 0-.9-.1-1.3l-3.8 3.5c.1.5.4.9.7 1.2.3.3.7.4 1.2.4.8 0 1.3-.3 1.6-.9.2-.6.4-1.6.4-2.9zm5.2-4.5h.9v10.8h-.9v-10.8zm6 8.1h2v-6.8l-2.1 1.5-.5-.7 2.8-2h.7v8.1h2v.9h-5v-1zm-47.6-36.3c0-.7.1-1.4.2-2 .1-.6.3-1.1.6-1.5.3-.4.6-.7 1-.9s.9-.3 1.4-.3c.6 0 1.1.1 1.5.3s.7.5 1 .9c.3.4.4.9.5 1.5.1.6.2 1.2.2 2 0 .7-.1 1.4-.2 2-.1.6-.3 1.1-.6 1.5-.3.4-.6.7-1 .9-.4.2-.9.3-1.4.3-.6 0-1.1-.1-1.5-.3s-.7-.6-1-1c-.3-.4-.4-.9-.6-1.5 0-.5-.1-1.2-.1-1.9zm1.1 0v1.2l3.9-3.5c-.1-.5-.4-.8-.7-1.1-.3-.3-.7-.4-1.2-.4-.8 0-1.3.3-1.6 1-.3.6-.4 1.6-.4 2.8zm4.2 0c0-.5 0-.9-.1-1.3l-3.8 3.5c.1.5.4.9.7 1.2.3.3.7.4 1.2.4.8 0 1.3-.3 1.6-.9.2-.6.4-1.6.4-2.9zm5.2-4.5h.9v10.8h-.9v-10.8zm5.1 4.5c0-.7.1-1.4.2-2 .1-.6.3-1.1.6-1.5.3-.4.6-.7 1-.9s.9-.3 1.4-.3c.6 0 1.1.1 1.5.3s.7.5 1 .9c.3.4.4.9.5 1.5.1.6.2 1.2.2 2 0 .7-.1 1.4-.2 2-.1.6-.3 1.1-.6 1.5-.3.4-.6.7-1 .9-.4.2-.9.3-1.4.3-.6 0-1.1-.1-1.5-.3s-.7-.6-1-1c-.3-.4-.4-.9-.6-1.5-.1-.5-.1-1.2-.1-1.9zm1 0v1.2l3.9-3.5c-.1-.5-.4-.8-.7-1.1-.3-.3-.7-.4-1.2-.4-.8 0-1.3.3-1.6 1-.2.6-.4 1.6-.4 2.8zm4.2 0c0-.5 0-.9-.1-1.3l-3.8 3.5c.1.5.4.9.7 1.2.3.3.7.4 1.2.4.8 0 1.3-.3 1.6-.9.3-.6.4-1.6.4-2.9zm5.3-4.5h.9v10.8h-.9v-10.8zm5 4.5c0-.7.1-1.4.2-2 .1-.6.3-1.1.6-1.5.3-.4.6-.7 1-.9s.9-.3 1.4-.3c.6 0 1.1.1 1.5.3s.7.5 1 .9c.3.4.4.9.5 1.5.1.6.2 1.2.2 2 0 .7-.1 1.4-.2 2-.1.6-.3 1.1-.6 1.5-.3.4-.6.7-1 .9-.4.2-.9.3-1.4.3-.6 0-1.1-.1-1.5-.3s-.7-.6-1-1c-.3-.4-.4-.9-.6-1.5 0-.5-.1-1.2-.1-1.9zm1.1 0v1.2l3.9-3.5c-.1-.5-.4-.8-.7-1.1-.3-.3-.7-.4-1.2-.4-.8 0-1.3.3-1.6 1-.3.6-.4 1.6-.4 2.8zm4.2 0c0-.5 0-.9-.1-1.3l-3.8 3.5c.1.5.4.9.7 1.2.3.3.7.4 1.2.4.8 0 1.3-.3 1.6-.9.2-.6.4-1.6.4-2.9zm5.2-4.5h.9v10.8h-.9v-10.8zm10.8 2.3c0 .8-.4 1.7-1.1 2.7-.8 1-1.8 2-3.2 3.2H83v.9h-5.8v-.9c.2-.2.4-.4.7-.6.3-.3.6-.5.9-.8.3-.3.7-.6 1-1 .3-.4.6-.7.9-1.1s.5-.7.7-1.1.3-.7.3-1.1c0-.5-.1-.9-.4-1.2s-.7-.4-1.2-.4-.9.1-1.2.2c-.3.1-.6.3-.9.5l-.4-.7c.4-.3.8-.5 1.2-.6.4-.1.9-.2 1.4-.2.8 0 1.4.2 1.8.7s.7.8.7 1.5zm-52.4-31.1c0-.7.1-1.4.2-2 .1-.6.3-1.1.6-1.5.3-.4.6-.7 1-.9s.9-.3 1.4-.3c.6 0 1.1.1 1.5.3s.7.5 1 .9c.3.4.4.9.5 1.5.1.6.2 1.2.2 2 0 .7-.1 1.4-.2 2-.1.6-.3 1.1-.6 1.5-.3.4-.6.7-1 .9-.4.2-.9.3-1.4.3-.6 0-1.1-.1-1.5-.3s-.7-.6-1-1c-.3-.4-.4-.9-.6-1.5 0-.6-.1-1.2-.1-1.9zm1.1 0v1.2l3.9-3.5c-.1-.5-.4-.8-.7-1.1-.3-.3-.7-.4-1.2-.4-.8 0-1.3.3-1.6 1-.3.6-.4 1.5-.4 2.8zm4.2 0c0-.5 0-.9-.1-1.3l-3.8 3.5c.1.5.4.9.7 1.2.3.3.7.4 1.2.4.8 0 1.3-.3 1.6-.9.2-.6.4-1.6.4-2.9zm5.2-4.5h.9v10.8h-.9v-10.8zm5.1 4.5c0-.7.1-1.4.2-2 .1-.6.3-1.1.6-1.5.3-.4.6-.7 1-.9s.9-.3 1.4-.3c.6 0 1.1.1 1.5.3s.7.5 1 .9c.3.4.4.9.5 1.5.1.6.2 1.2.2 2 0 .7-.1 1.4-.2 2-.1.6-.3 1.1-.6 1.5-.3.4-.6.7-1 .9-.4.2-.9.3-1.4.3-.6 0-1.1-.1-1.5-.3s-.7-.6-1-1c-.3-.4-.4-.9-.6-1.5-.1-.6-.1-1.2-.1-1.9zm1 0v1.2l3.9-3.5c-.1-.5-.4-.8-.7-1.1-.3-.3-.7-.4-1.2-.4-.8 0-1.3.3-1.6 1-.2.6-.4 1.5-.4 2.8zm4.2 0c0-.5 0-.9-.1-1.3l-3.8 3.5c.1.5.4.9.7 1.2.3.3.7.4 1.2.4.8 0 1.3-.3 1.6-.9.3-.6.4-1.6.4-2.9zm5.3-4.5h.9v10.8h-.9v-10.8zm5 4.5c0-.7.1-1.4.2-2 .1-.6.3-1.1.6-1.5.3-.4.6-.7 1-.9s.9-.3 1.4-.3c.6 0 1.1.1 1.5.3s.7.5 1 .9c.3.4.4.9.5 1.5.1.6.2 1.2.2 2 0 .7-.1 1.4-.2 2-.1.6-.3 1.1-.6 1.5-.3.4-.6.7-1 .9-.4.2-.9.3-1.4.3-.6 0-1.1-.1-1.5-.3s-.7-.6-1-1c-.3-.4-.4-.9-.6-1.5 0-.6-.1-1.2-.1-1.9zm1.1 0v1.2l3.9-3.5c-.1-.5-.4-.8-.7-1.1-.3-.3-.7-.4-1.2-.4-.8 0-1.3.3-1.6 1-.3.6-.4 1.5-.4 2.8zm4.2 0c0-.5 0-.9-.1-1.3l-3.8 3.5c.1.5.4.9.7 1.2.3.3.7.4 1.2.4.8 0 1.3-.3 1.6-.9.2-.6.4-1.6.4-2.9zm5.2-4.5h.9v10.8h-.9v-10.8zm7.5 8.3c.3 0 .7 0 1-.1.3-.1.5-.2.8-.4.2-.2.4-.4.5-.6s.2-.5.2-.8c0-.6-.2-1-.6-1.3s-1-.4-1.7-.4h-.8v-.6l2.6-3.2h-3.9v-.9h5.1v.9l-2.6 3h.2c.4 0 .8.1 1.1.2.3.1.6.3.9.5s.4.5.6.8c.1.3.2.6.2 1 0 .5-.1.9-.3 1.2-.2.4-.4.7-.7.9s-.7.4-1.1.6c-.4.1-.9.2-1.3.2s-.8 0-1.1-.1c-.3-.1-.6-.1-.9-.2l.3-.9c.2.1.5.2.8.3 0-.1.4-.1.7-.1zm-49.1-70.8c0-.7.1-1.4.2-2 .1-.6.3-1.1.6-1.5.3-.4.6-.7 1-.9s.9-.3 1.4-.3c.6 0 1.1.1 1.5.3s.7.5 1 .9c.3.4.4.9.5 1.5.1.6.2 1.2.2 2 0 .7-.1 1.4-.2 2-.1.6-.3 1.1-.6 1.5-.3.4-.6.7-1 .9-.4.2-.9.3-1.4.3-.6 0-1.1-.1-1.5-.3s-.7-.6-1-1c-.3-.4-.4-.9-.6-1.5 0-.6-.1-1.2-.1-1.9zm1.1 0v1.2l3.9-3.5c-.1-.5-.4-.8-.7-1.1-.3-.3-.7-.4-1.2-.4-.8 0-1.3.3-1.6 1-.3.6-.4 1.5-.4 2.8zm4.2 0c0-.5 0-.9-.1-1.3l-3.8 3.5c.1.5.4.9.7 1.2.3.3.7.4 1.2.4.8 0 1.3-.3 1.6-.9.2-.6.4-1.6.4-2.9zm5.2-4.5h.9v10.8h-.9v-10.8zm5.1 4.5c0-.7.1-1.4.2-2 .1-.6.3-1.1.6-1.5.3-.4.6-.7 1-.9s.9-.3 1.4-.3c.6 0 1.1.1 1.5.3s.7.5 1 .9c.3.4.4.9.5 1.5.1.6.2 1.2.2 2 0 .7-.1 1.4-.2 2-.1.6-.3 1.1-.6 1.5-.3.4-.6.7-1 .9-.4.2-.9.3-1.4.3-.6 0-1.1-.1-1.5-.3s-.7-.6-1-1c-.3-.4-.4-.9-.6-1.5-.1-.6-.1-1.2-.1-1.9zm1 0v1.2l3.9-3.5c-.1-.5-.4-.8-.7-1.1-.3-.3-.7-.4-1.2-.4-.8 0-1.3.3-1.6 1-.2.6-.4 1.5-.4 2.8zm4.2 0c0-.5 0-.9-.1-1.3l-3.8 3.5c.1.5.4.9.7 1.2.3.3.7.4 1.2.4.8 0 1.3-.3 1.6-.9.3-.6.4-1.6.4-2.9zm5.3-4.5h.9v10.8h-.9v-10.8zm5.9 8.1h2v-6.8l-2.1 1.5-.5-.7 2.8-2h.7v8.1h2v.9h-5v-1zm9.6-8.1h.9v10.8h-.9v-10.8zm5 4.5c0-.7.1-1.4.2-2 .1-.6.3-1.1.6-1.5.3-.4.6-.7 1-.9s.9-.3 1.4-.3c.6 0 1.1.1 1.5.3s.7.5 1 .9c.3.4.4.9.5 1.5.1.6.2 1.2.2 2 0 .7-.1 1.4-.2 2-.1.6-.3 1.1-.6 1.5-.3.4-.6.7-1 .9-.4.2-.9.3-1.4.3-.6 0-1.1-.1-1.5-.3s-.7-.6-1-1c-.3-.4-.4-.9-.6-1.5 0-.6-.1-1.2-.1-1.9zm1.1 0v1.2l3.9-3.5c-.1-.5-.4-.8-.7-1.1-.3-.3-.7-.4-1.2-.4-.8 0-1.3.3-1.6 1-.2.6-.4 1.5-.4 2.8zm4.2 0c0-.5 0-.9-.1-1.3l-3.8 3.5c.1.5.4.9.7 1.2.3.3.7.4 1.2.4.8 0 1.3-.3 1.6-.9.3-.6.4-1.6.4-2.9zm-51.9-32.7c0-.7.1-1.4.2-2 .1-.6.3-1.1.6-1.5.3-.4.6-.7 1-.9s.9-.3 1.4-.3c.6 0 1.1.1 1.5.3s.7.5 1 .9c.3.4.4.9.5 1.5.1.6.2 1.2.2 2 0 .7-.1 1.4-.2 2-.1.6-.3 1.1-.6 1.5-.3.4-.6.7-1 .9-.4.2-.9.3-1.4.3-.6 0-1.1-.1-1.5-.3s-.7-.6-1-1c-.3-.4-.4-.9-.6-1.5 0-.5-.1-1.2-.1-1.9zm1.1 0v1.2l3.9-3.5c-.1-.5-.4-.8-.7-1.1-.3-.3-.7-.4-1.2-.4-.8 0-1.3.3-1.6 1-.3.6-.4 1.6-.4 2.8zm4.2 0c0-.5 0-.9-.1-1.3l-3.8 3.5c.1.5.4.9.7 1.2.3.3.7.4 1.2.4.8 0 1.3-.3 1.6-.9.2-.6.4-1.6.4-2.9zm5.2-4.5h.9v10.8h-.9v-10.8zm5.1 4.5c0-.7.1-1.4.2-2 .1-.6.3-1.1.6-1.5.3-.4.6-.7 1-.9s.9-.3 1.4-.3c.6 0 1.1.1 1.5.3s.7.5 1 .9c.3.4.4.9.5 1.5.1.6.2 1.2.2 2 0 .7-.1 1.4-.2 2-.1.6-.3 1.1-.6 1.5-.3.4-.6.7-1 .9-.4.2-.9.3-1.4.3-.6 0-1.1-.1-1.5-.3s-.7-.6-1-1c-.3-.4-.4-.9-.6-1.5-.1-.5-.1-1.2-.1-1.9zm1 0v1.2l3.9-3.5c-.1-.5-.4-.8-.7-1.1-.3-.3-.7-.4-1.2-.4-.8 0-1.3.3-1.6 1-.2.6-.4 1.6-.4 2.8zm4.2 0c0-.5 0-.9-.1-1.3l-3.8 3.5c.1.5.4.9.7 1.2.3.3.7.4 1.2.4.8 0 1.3-.3 1.6-.9.3-.6.4-1.6.4-2.9zm5.3-4.5h.9v10.8h-.9v-10.8zm10.8 2.3c0 .8-.4 1.7-1.1 2.7-.8 1-1.8 2-3.2 3.2h4.6v.9h-5.8v-.9c.2-.2.4-.4.7-.6.3-.3.6-.5.9-.8.3-.3.7-.6 1-1 .3-.4.6-.7.9-1.1s.5-.7.7-1.1.3-.7.3-1.1c0-.5-.1-.9-.4-1.2s-.7-.4-1.2-.4-.9.1-1.2.2c-.3.1-.6.3-.9.5l-.4-.7c.4-.3.8-.5 1.2-.6.4-.1.9-.2 1.4-.2.8 0 1.4.2 1.8.7s.7.8.7 1.5zm4.7-2.3h.9v10.8h-.9v-10.8zm5 4.5c0-.7.1-1.4.2-2 .1-.6.3-1.1.6-1.5.3-.4.6-.7 1-.9s.9-.3 1.4-.3c.6 0 1.1.1 1.5.3s.7.5 1 .9c.3.4.4.9.5 1.5.1.6.2 1.2.2 2 0 .7-.1 1.4-.2 2-.1.6-.3 1.1-.6 1.5-.3.4-.6.7-1 .9-.4.2-.9.3-1.4.3-.6 0-1.1-.1-1.5-.3s-.7-.6-1-1c-.3-.4-.4-.9-.6-1.5 0-.5-.1-1.2-.1-1.9zm1.1 0v1.2l3.9-3.5c-.1-.5-.4-.8-.7-1.1-.3-.3-.7-.4-1.2-.4-.8 0-1.3.3-1.6 1-.2.6-.4 1.6-.4 2.8zm4.2 0c0-.5 0-.9-.1-1.3l-3.8 3.5c.1.5.4.9.7 1.2.3.3.7.4 1.2.4.8 0 1.3-.3 1.6-.9.3-.6.4-1.6.4-2.9zm-51.9-32.8c0-.7.1-1.4.2-2 .1-.6.3-1.1.6-1.5.3-.4.6-.7 1-.9s.9-.3 1.4-.3c.6 0 1.1.1 1.5.3s.7.5 1 .9c.3.4.4.9.5 1.5.1.6.2 1.2.2 2 0 .7-.1 1.4-.2 2-.1.6-.3 1.1-.6 1.5-.3.4-.6.7-1 .9-.4.2-.9.3-1.4.3-.6 0-1.1-.1-1.5-.3s-.7-.6-1-1c-.3-.4-.4-.9-.6-1.5 0-.6-.1-1.2-.1-1.9zm1.1 0v1.2l3.9-3.5c-.1-.5-.4-.8-.7-1.1-.3-.3-.7-.4-1.2-.4-.8 0-1.3.3-1.6 1-.3.6-.4 1.5-.4 2.8zm4.2 0c0-.5 0-.9-.1-1.3l-3.8 3.5c.1.5.4.9.7 1.2.3.3.7.4 1.2.4.8 0 1.3-.3 1.6-.9.2-.6.4-1.6.4-2.9zm5.2-4.5h.9v10.8h-.9v-10.8zm5.1 4.5c0-.7.1-1.4.2-2 .1-.6.3-1.1.6-1.5.3-.4.6-.7 1-.9s.9-.3 1.4-.3c.6 0 1.1.1 1.5.3s.7.5 1 .9c.3.4.4.9.5 1.5.1.6.2 1.2.2 2 0 .7-.1 1.4-.2 2-.1.6-.3 1.1-.6 1.5-.3.4-.6.7-1 .9-.4.2-.9.3-1.4.3-.6 0-1.1-.1-1.5-.3s-.7-.6-1-1c-.3-.4-.4-.9-.6-1.5-.1-.6-.1-1.2-.1-1.9zm1 0v1.2l3.9-3.5c-.1-.5-.4-.8-.7-1.1-.3-.3-.7-.4-1.2-.4-.8 0-1.3.3-1.6 1-.2.6-.4 1.5-.4 2.8zm4.2 0c0-.5 0-.9-.1-1.3l-3.8 3.5c.1.5.4.9.7 1.2.3.3.7.4 1.2.4.8 0 1.3-.3 1.6-.9.3-.6.4-1.6.4-2.9zm5.3-4.5h.9v10.8h-.9v-10.8zm7.5 8.3c.3 0 .7 0 1-.1.3-.1.5-.2.8-.4.2-.2.4-.4.5-.6s.2-.5.2-.8c0-.6-.2-1-.6-1.3s-1-.4-1.7-.4h-.8v-.6l2.6-3.2H62v-.9h5v.9l-2.6 3h.2c.4 0 .8.1 1.1.2.3.1.6.3.9.5s.4.5.6.8c.1.3.2.6.2 1 0 .5-.1.9-.3 1.2-.2.4-.4.7-.7.9s-.7.4-1.1.6c-.4.1-.9.2-1.3.2s-.8 0-1.1-.1c-.3-.1-.6-.1-.9-.2l.3-.9c.2.1.5.2.8.3.1-.1.4-.1.8-.1zm8-8.3h.9v10.8h-.9v-10.8zm5 4.5c0-.7.1-1.4.2-2 .1-.6.3-1.1.6-1.5.3-.4.6-.7 1-.9s.9-.3 1.4-.3c.6 0 1.1.1 1.5.3s.7.5 1 .9c.3.4.4.9.5 1.5.1.6.2 1.2.2 2 0 .7-.1 1.4-.2 2-.1.6-.3 1.1-.6 1.5-.3.4-.6.7-1 .9-.4.2-.9.3-1.4.3-.6 0-1.1-.1-1.5-.3s-.7-.6-1-1c-.3-.4-.4-.9-.6-1.5 0-.6-.1-1.2-.1-1.9zm1.1 0v1.2l3.9-3.5c-.1-.5-.4-.8-.7-1.1-.3-.3-.7-.4-1.2-.4-.8 0-1.3.3-1.6 1-.2.6-.4 1.5-.4 2.8zm4.2 0c0-.5 0-.9-.1-1.3l-3.8 3.5c.1.5.4.9.7 1.2.3.3.7.4 1.2.4.8 0 1.3-.3 1.6-.9.3-.6.4-1.6.4-2.9zm-51-130.1h2v-6.8l-2.1 1.5-.5-.7 2.8-2h.7v8.1h2v.9h-5v-1zm9.6-8.2h.9v10.8h-.9V97.1zm5.1 4.6c0-.7.1-1.4.2-2 .1-.6.3-1.1.6-1.5.3-.4.6-.7 1-.9s.8-.3 1.3-.3c.6 0 1.1.1 1.5.3s.7.5 1 .9c.3.4.4.9.5 1.5.1.6.2 1.2.2 2 0 .7-.1 1.4-.2 2-.1.6-.3 1.1-.6 1.5-.3.4-.6.7-1 .9-.4.2-.9.3-1.4.3-.6 0-1.1-.1-1.5-.3s-.7-.6-1-1c-.3-.4-.4-.9-.6-1.5v-1.9zm1 0v1.2l3.9-3.5c-.1-.5-.4-.8-.7-1.1-.3-.3-.7-.4-1.2-.4-.8 0-1.3.3-1.6 1-.2.5-.4 1.5-.4 2.8zm4.2 0c0-.5 0-.9-.1-1.3l-3.8 3.5c.1.5.4.9.7 1.2.3.3.7.4 1.2.4.8 0 1.3-.3 1.6-.9.3-.7.4-1.6.4-2.9zm5.3-4.6h.9v10.8h-.9V97.1zm5 4.6c0-.7.1-1.4.2-2 .1-.6.3-1.1.6-1.5.3-.4.6-.7 1-.9s.8-.3 1.4-.3c.6 0 1.1.1 1.5.3s.7.5 1 .9c.3.4.4.9.5 1.5.1.6.2 1.2.2 2 0 .7-.1 1.4-.2 2-.1.6-.3 1.1-.6 1.5-.3.4-.6.7-1 .9-.4.2-.9.3-1.4.3-.6 0-1.1-.1-1.5-.3s-.7-.6-1-1c-.3-.4-.4-.9-.6-1.5 0-.6-.1-1.2-.1-1.9zm1.1 0v1.2l3.9-3.5c-.1-.5-.4-.8-.7-1.1-.3-.3-.7-.4-1.2-.4-.8 0-1.3.3-1.6 1-.3.5-.4 1.5-.4 2.8zm4.2 0c0-.5 0-.9-.1-1.3l-3.8 3.5c.1.5.4.9.7 1.2.3.3.7.4 1.2.4.8 0 1.3-.3 1.6-.9.2-.7.4-1.6.4-2.9zm5.2-4.6h.9v10.8h-.9V97.1zm5 4.6c0-.7.1-1.4.2-2 .1-.6.3-1.1.6-1.5.3-.4.6-.7 1-.9s.9-.3 1.4-.3c.6 0 1.1.1 1.5.3s.7.5 1 .9c.3.4.4.9.5 1.5.1.6.2 1.2.2 2 0 .7-.1 1.4-.2 2-.1.6-.3 1.1-.6 1.5-.3.4-.6.7-1 .9-.4.2-.9.3-1.4.3-.6 0-1.1-.1-1.5-.3s-.7-.6-1-1c-.3-.4-.4-.9-.6-1.5 0-.6-.1-1.2-.1-1.9zm1.1 0v1.2l3.9-3.5c-.1-.5-.4-.8-.7-1.1-.3-.3-.7-.4-1.2-.4-.8 0-1.3.3-1.6 1-.2.5-.4 1.5-.4 2.8zm4.2 0c0-.5 0-.9-.1-1.3l-3.8 3.5c.1.5.4.9.7 1.2.3.3.7.4 1.2.4.8 0 1.3-.3 1.6-.9.3-.7.4-1.6.4-2.9zm-51.9 66.2c0-.7.1-1.4.2-2 .1-.6.3-1.1.6-1.5.3-.4.6-.7 1-.9s.9-.3 1.4-.3c.6 0 1.1.1 1.5.3s.7.5 1 .9c.3.4.4.9.5 1.5.1.6.2 1.2.2 2 0 .7-.1 1.4-.2 2-.1.6-.3 1.1-.6 1.5-.3.4-.6.7-1 .9-.4.2-.9.3-1.4.3-.6 0-1.1-.1-1.5-.3s-.7-.6-1-1c-.3-.4-.4-.9-.6-1.5 0-.6-.1-1.2-.1-1.9zm1.1 0v1.2l3.9-3.5c-.1-.5-.4-.8-.7-1.1-.3-.3-.7-.4-1.2-.4-.8 0-1.3.3-1.6 1-.3.6-.4 1.5-.4 2.8zm4.2 0c0-.5 0-.9-.1-1.3l-3.8 3.5c.1.5.4.9.7 1.2.3.3.7.4 1.2.4.8 0 1.3-.3 1.6-.9.2-.6.4-1.6.4-2.9zm5.2-4.5h.9v10.8h-.9v-10.8zm6 8.1h2v-6.8l-2.1 1.5-.5-.7 2.8-2h.7v8.1h2v.9h-5v-1zm9.6-8.1h.9v10.8h-.9v-10.8zm5 4.5c0-.7.1-1.4.2-2 .1-.6.3-1.1.6-1.5.3-.4.6-.7 1-.9s.9-.3 1.4-.3c.6 0 1.1.1 1.5.3s.7.5 1 .9c.3.4.4.9.5 1.5.1.6.2 1.2.2 2 0 .7-.1 1.4-.2 2-.1.6-.3 1.1-.6 1.5-.3.4-.6.7-1 .9-.4.2-.9.3-1.4.3-.6 0-1.1-.1-1.5-.3s-.7-.6-1-1c-.3-.4-.4-.9-.6-1.5 0-.6-.1-1.2-.1-1.9zm1.1 0v1.2l3.9-3.5c-.1-.5-.4-.8-.7-1.1-.3-.3-.7-.4-1.2-.4-.8 0-1.3.3-1.6 1-.3.6-.4 1.5-.4 2.8zm4.2 0c0-.5 0-.9-.1-1.3l-3.8 3.5c.1.5.4.9.7 1.2.3.3.7.4 1.2.4.8 0 1.3-.3 1.6-.9.2-.6.4-1.6.4-2.9zm5.2-4.5h.9v10.8h-.9v-10.8zm5 4.5c0-.7.1-1.4.2-2 .1-.6.3-1.1.6-1.5.3-.4.6-.7 1-.9s.9-.3 1.4-.3c.6 0 1.1.1 1.5.3s.7.5 1 .9c.3.4.4.9.5 1.5.1.6.2 1.2.2 2 0 .7-.1 1.4-.2 2-.1.6-.3 1.1-.6 1.5-.3.4-.6.7-1 .9-.4.2-.9.3-1.4.3-.6 0-1.1-.1-1.5-.3s-.7-.6-1-1c-.3-.4-.4-.9-.6-1.5 0-.6-.1-1.2-.1-1.9zm1.1 0v1.2l3.9-3.5c-.1-.5-.4-.8-.7-1.1-.3-.3-.7-.4-1.2-.4-.8 0-1.3.3-1.6 1-.2.6-.4 1.5-.4 2.8zm4.2 0c0-.5 0-.9-.1-1.3l-3.8 3.5c.1.5.4.9.7 1.2.3.3.7.4 1.2.4.8 0 1.3-.3 1.6-.9.3-.6.4-1.6.4-2.9zM264 506.6c-.8.3-2.4.8-4.3.8-2.1 0-3.9-.5-5.3-1.9-1.2-1.2-2-3-2-5.2 0-4.2 2.9-7.3 7.6-7.3 1.6 0 2.9.4 3.5.6l-.4 1.5c-.8-.3-1.7-.6-3.1-.6-3.4 0-5.7 2.1-5.7 5.7s2.1 5.7 5.4 5.7c1.2 0 2-.2 2.4-.4v-4.2h-2.9v-1.5h4.6v6.8zm10-6h-5.5v5.1h6.1v1.5h-7.9v-14.1h7.6v1.5h-5.8v4.4h5.5v1.6zm3 6.6v-14.1h2l4.5 7.1c1 1.6 1.9 3.1 2.5 4.6-.2-1.9-.2-3.6-.2-5.8v-5.9h1.7v14.1h-1.8l-4.5-7.1c-1-1.6-1.9-3.2-2.6-4.7h-.1c.1 1.8.1 3.5.1 5.8v6H277zm21-6.6h-5.5v5.1h6.1v1.5h-7.9v-14.1h7.6v1.5h-5.8v4.4h5.5v1.6zm3-7.3c.9-.2 2.2-.3 3.5-.3 1.9 0 3.2.4 4.1 1.1.7.6 1.1 1.6 1.1 2.7 0 1.9-1.2 3.1-2.7 3.6v.1c1.1.4 1.7 1.4 2.1 2.8.5 2 .8 3.3 1.1 3.9h-1.9c-.2-.4-.5-1.6-.9-3.4-.4-1.9-1.2-2.7-2.8-2.7h-1.7v6.1H301v-13.9zm1.8 6.4h1.9c1.9 0 3.2-1.1 3.2-2.7 0-1.8-1.3-2.6-3.2-2.6-.9 0-1.5.1-1.8.2v5.1zm11.3-6.6v14.1h-1.8v-14.1h1.8zm13 13.6c-.7.3-2 .7-3.7.7-4 0-7-2.5-7-7.1 0-4.4 3-7.4 7.3-7.4 1.8 0 2.9.4 3.3.6l-.4 1.5c-.7-.3-1.7-.6-2.8-.6-3.3 0-5.5 2.1-5.5 5.8 0 3.4 2 5.7 5.4 5.7 1.1 0 2.2-.2 3-.6l.4 1.4zm51.6-6.1h-5.5v5.1h6.1v1.5h-7.9v-14.1h7.6v1.5h-5.8v4.4h5.5v1.6zm3-7.5h1.8v12.5h6v1.5h-7.8v-14zm17.1 7.5h-5.5v5.1h6.1v1.5h-7.9v-14.1h7.6v1.5h-5.8v4.4h5.5v1.6zm14.9.4c-.1-2-.2-4.3-.2-6.1h-.1c-.5 1.6-1.1 3.4-1.8 5.3l-2.5 6.8h-1.4l-2.3-6.7c-.7-2-1.2-3.8-1.6-5.5 0 1.8-.1 4.1-.3 6.2l-.4 6h-1.7l1-14.1h2.3l2.4 6.8c.6 1.7 1.1 3.3 1.4 4.7h.1c.4-1.4.9-3 1.5-4.7l2.5-6.8h2.3l.9 14.1H414l-.3-6zm12.2-.4h-5.5v5.1h6.1v1.5h-7.9v-14.1h7.6v1.5h-5.8v4.4h5.5v1.6zm3 6.6v-14.1h2l4.5 7.1c1 1.6 1.9 3.1 2.5 4.6-.2-1.9-.2-3.6-.2-5.8v-5.9h1.7v14.1h-1.8l-4.5-7.1c-1-1.6-1.9-3.2-2.6-4.7h-.1c.1 1.8.1 3.5.1 5.8v6h-1.6zm16.4-12.5H441v-1.5h10.4v1.5h-4.3v12.5h-1.8v-12.5zm7.3 10.3c.8.5 2 .9 3.3.9 1.9 0 2.9-1 2.9-2.4 0-1.3-.8-2.1-2.7-2.8-2.3-.8-3.7-2-3.7-4 0-2.2 1.8-3.8 4.6-3.8 1.4 0 2.5.3 3.1.7l-.5 1.5c-.5-.2-1.4-.7-2.7-.7-1.9 0-2.7 1.1-2.7 2.1 0 1.3.9 2 2.8 2.7 2.4.9 3.6 2.1 3.6 4.1 0 2.2-1.6 4-4.9 4-1.4 0-2.8-.4-3.6-.9l.5-1.4zm64.7-5c0 4.8-2.9 7.4-6.5 7.4-3.7 0-6.3-2.9-6.3-7.1 0-4.5 2.8-7.4 6.5-7.4 3.8 0 6.3 2.9 6.3 7.1zm-11 .3c0 3 1.6 5.7 4.5 5.7s4.5-2.7 4.5-5.8c0-2.8-1.5-5.7-4.5-5.7-3-.1-4.5 2.7-4.5 5.8zm13.3-7c.8-.2 2-.3 3.3-.3 1.8 0 3 .3 3.9 1 .7.5 1.2 1.4 1.2 2.5 0 1.4-.9 2.5-2.4 3.1 1.3.3 2.9 1.4 2.9 3.5 0 1.2-.5 2.1-1.2 2.8-1 .9-2.6 1.3-4.9 1.3-1.3 0-2.2-.1-2.8-.2v-13.7zm1.8 5.8h1.6c1.9 0 3-1 3-2.4 0-1.6-1.3-2.3-3.1-2.3-.8 0-1.3.1-1.6.1v4.6zm0 6.7c.4.1.9.1 1.5.1 1.9 0 3.6-.7 3.6-2.7 0-1.9-1.6-2.7-3.6-2.7h-1.5v5.3zm12.4-12.7h1.8v9.4c0 3.7-1.8 4.9-4.3 4.9-.7 0-1.5-.1-1.9-.3l.3-1.5c.4.1.9.3 1.5.3 1.6 0 2.6-.7 2.6-3.5v-9.3zm12.1 7.5h-5.5v5.1h6.1v1.5h-7.9v-14.1h7.6v1.5h-5.8v4.4h5.5v1.6zm12.9 6.1c-.7.3-2 .7-3.7.7-4 0-7-2.5-7-7.1 0-4.4 3-7.4 7.3-7.4 1.8 0 2.9.4 3.3.6l-.4 1.5c-.7-.3-1.7-.6-2.8-.6-3.3 0-5.5 2.1-5.5 5.8 0 3.4 2 5.7 5.4 5.7 1.1 0 2.2-.2 3-.6l.4 1.4zm5.5-12H560v-1.5h10.4v1.5h-4.3v12.5h-1.8v-12.5zm7.3 10.3c.8.5 2 .9 3.3.9 1.9 0 2.9-1 2.9-2.4 0-1.3-.8-2.1-2.7-2.8-2.3-.8-3.7-2-3.7-4 0-2.2 1.8-3.8 4.6-3.8 1.4 0 2.5.3 3.1.7l-.5 1.5c-.5-.2-1.4-.7-2.7-.7-1.9 0-2.7 1.1-2.7 2.1 0 1.3.9 2 2.8 2.7 2.4.9 3.6 2.1 3.6 4.1 0 2.2-1.6 4-4.9 4-1.4 0-2.8-.4-3.6-.9l.5-1.4zm144.5 1.7c-.7.3-2 .7-3.7.7-4 0-7-2.5-7-7.1 0-4.4 3-7.4 7.3-7.4 1.8 0 2.9.4 3.3.6l-.4 1.5c-.7-.3-1.7-.6-2.8-.6-3.3 0-5.5 2.1-5.5 5.8 0 3.4 2 5.7 5.4 5.7 1.1 0 2.2-.2 3-.6l.4 1.4zm13.8-6.7c0 4.8-2.9 7.4-6.5 7.4-3.7 0-6.3-2.9-6.3-7.1 0-4.5 2.8-7.4 6.5-7.4 3.8 0 6.3 2.9 6.3 7.1zm-10.9.3c0 3 1.6 5.7 4.5 5.7s4.5-2.7 4.5-5.8c0-2.8-1.5-5.7-4.5-5.7-3-.1-4.5 2.7-4.5 5.8zm25.1.7c-.1-2-.2-4.3-.2-6.1h-.1c-.5 1.6-1.1 3.4-1.8 5.3l-2.5 6.8h-1.4l-2.3-6.7c-.7-2-1.2-3.8-1.6-5.5 0 1.8-.1 4.1-.3 6.2l-.4 6h-1.7l1-14.1h2.3l2.4 6.8c.6 1.7 1.1 3.3 1.4 4.7h.1c.4-1.4.9-3 1.5-4.7l2.5-6.8h2.3l.9 14.1h-1.8l-.3-6zm5-7.7c.9-.1 2-.3 3.5-.3 1.8 0 3.1.4 3.9 1.2.8.7 1.2 1.7 1.2 2.9 0 1.3-.4 2.3-1.1 3-1 1-2.5 1.5-4.3 1.5-.5 0-1 0-1.5-.1v5.6H749v-13.8zm1.8 6.8c.4.1.9.1 1.5.1 2.2 0 3.5-1.1 3.5-3s-1.3-2.8-3.3-2.8c-.8 0-1.4.1-1.7.1v5.6zm21.3-.1c0 4.8-2.9 7.4-6.5 7.4-3.7 0-6.3-2.9-6.3-7.1 0-4.5 2.8-7.4 6.5-7.4 3.8 0 6.3 2.9 6.3 7.1zm-10.9.3c0 3 1.6 5.7 4.5 5.7s4.5-2.7 4.5-5.8c0-2.8-1.5-5.7-4.5-5.7-3-.1-4.5 2.7-4.5 5.8zm13.3 6.9v-14.1h2l4.5 7.1c1 1.6 1.9 3.1 2.5 4.6-.2-1.9-.2-3.6-.2-5.8v-5.9h1.7v14.1h-1.8l-4.5-7.1c-1-1.6-1.9-3.2-2.6-4.7h-.1c.1 1.8.1 3.5.1 5.8v6h-1.6zm21-6.6h-5.5v5.1h6.1v1.5h-7.9v-14.1h7.6v1.5h-5.8v4.4h5.5v1.6zm3 6.6v-14.1h2l4.5 7.1c1 1.6 1.9 3.1 2.5 4.6-.2-1.9-.2-3.6-.2-5.8v-5.9h1.7v14.1h-1.8l-4.5-7.1c-1-1.6-1.9-3.2-2.6-4.7h-.1c.1 1.8.1 3.5.1 5.8v6h-1.6zm16.4-12.5h-4.3v-1.5h10.4v1.5h-4.3v12.5H815v-12.5zm7.3 10.3c.8.5 2 .9 3.3.9 1.9 0 2.9-1 2.9-2.4 0-1.3-.8-2.1-2.7-2.8-2.3-.8-3.7-2-3.7-4 0-2.2 1.8-3.8 4.6-3.8 1.4 0 2.5.3 3.1.7l-.5 1.5c-.5-.2-1.4-.7-2.7-.7-1.9 0-2.7 1.1-2.7 2.1 0 1.3.9 2 2.8 2.7 2.4.9 3.6 2.1 3.6 4.1 0 2.2-1.6 4-4.9 4-1.4 0-2.8-.4-3.6-.9l.5-1.4zm151.4-11.9v8.3c0 3.2 1.4 4.5 3.3 4.5 2.1 0 3.4-1.4 3.4-4.5v-8.3h1.8v8.2c0 4.3-2.3 6.1-5.3 6.1-2.9 0-5.1-1.6-5.1-6v-8.3h1.9zm14.4 1.6h-4.3v-1.5h10.4v1.5h-4.3v12.5h-1.8v-12.5zm9.5-1.6v14.1h-1.8v-14.1h1.8zm3.2 0h1.8v12.5h6v1.5h-7.8v-14zm11.7 0v14.1h-1.8v-14.1h1.8zm5.8 1.6h-4.3v-1.5h10.4v1.5h-4.3v12.5h-1.8v-12.5zm9.5-1.6v14.1h-1.8v-14.1h1.8zm10.5 7.5h-5.5v5.1h6.1v1.5h-7.9v-14.1h7.6v1.5h-5.8v4.4h5.5v1.6zm2.7 4.4c.8.5 2 .9 3.3.9 1.9 0 2.9-1 2.9-2.4 0-1.3-.8-2.1-2.7-2.8-2.3-.8-3.7-2-3.7-4 0-2.2 1.8-3.8 4.6-3.8 1.4 0 2.5.3 3.1.7l-.5 1.5c-.5-.2-1.4-.7-2.7-.7-1.9 0-2.7 1.1-2.7 2.1 0 1.3.9 2 2.8 2.7 2.4.9 3.6 2.1 3.6 4.1 0 2.2-1.6 4-4.9 4-1.4 0-2.8-.4-3.6-.9l.5-1.4z"/>
  <path class="st3" d="M229 400.3h255v66.5H229z"/>
  <path class="st3" d="M229 433.6h255v33.2H229z"/>
  <path class="st3" d="M229 433.6h255v33.2H229zm255-166.3h113v199.5H484z"/>
  <path class="st3" d="M484 299.8h113v167H484zm113-65.2h352v232.2H597z"/>
  <path class="st3" d="M597 267.3h352v199.5H597z"/>
  <path class="st3" d="M597 299.8h352v167H597z"/>
  <path class="st3" d="M948.9 101.6h115.7v365.2H948.9zM484 299.8h113v167H484z"/>
  <path class="st3" d="M948.9 101.6h115.7v365.2H948.9z"/>
  <path class="st3" d="M948.9 101.6h115.7v365.2H948.9z"/>
</svg>
